<svg width="24" height="28" viewBox="0 0 24 28" fill="none" xmlns="http://www.w3.org/2000/svg">
<path fill-rule="evenodd" clip-rule="evenodd" d="M7.26905 1.5642C7.12487 1.31562 7.21885 1.0024 7.47896 0.864606C7.73907 0.726814 8.06681 0.816628 8.21099 1.06521L9.43216 3.17063C10.3478 2.82179 11.3575 2.62849 12.4183 2.62849C13.4792 2.62849 14.4888 2.82179 15.4045 3.17063L16.6257 1.06521C16.7698 0.816628 17.0976 0.726814 17.3577 0.864606C17.6178 1.0024 17.7118 1.31562 17.5676 1.5642L16.3765 3.61781C18.5218 4.78761 19.9525 6.87993 19.9571 9.26732H4.87953C4.88419 6.87993 6.31482 4.78761 8.46017 3.61781L7.26905 1.5642ZM4.87952 20.2841V9.83736H19.9571V20.2841C19.9571 21.246 19.1411 22.0259 18.1346 22.0259H17.5216V22.0253H16.9251V25.5849C16.9251 26.4769 16.1685 27.2 15.2351 27.2C14.3018 27.2 13.5451 26.4769 13.5451 25.5849V22.0253H12.9486V22.0259H11.8882V22.0253H11.2917V25.5849C11.2917 26.4769 10.5351 27.2 9.60173 27.2C8.66836 27.2 7.91171 26.4769 7.91171 25.5849V22.0253H7.31523V22.0259H6.70209C5.69551 22.0259 4.87952 21.246 4.87952 20.2841ZM8.3093 6.02914C8.3093 5.69683 8.59118 5.42743 8.93891 5.42743C9.28664 5.42743 9.56853 5.69683 9.56853 6.02914C9.56853 6.36146 9.28664 6.63086 8.93891 6.63086C8.59118 6.63086 8.3093 6.36146 8.3093 6.02914ZM15.2682 6.02914C15.2682 5.69683 15.5501 5.42743 15.8978 5.42743C16.2455 5.42743 16.5274 5.69683 16.5274 6.02914C16.5274 6.36146 16.2455 6.63086 15.8978 6.63086C15.5501 6.63086 15.2682 6.36146 15.2682 6.02914ZM0.899994 11.1508C0.899994 10.2588 1.65664 9.53567 2.59001 9.53567C3.52338 9.53567 4.28003 10.2588 4.28003 11.1508V17.8805C4.28003 18.7725 3.52338 19.4956 2.59001 19.4956C1.65664 19.4956 0.899994 18.7725 0.899994 17.8805V11.1508ZM20.62 11.1508C20.62 10.2588 21.3766 9.53567 22.31 9.53567C23.2433 9.53567 24 10.2588 24 11.1508V17.8805C24 18.7725 23.2433 19.4956 22.31 19.4956C21.3766 19.4956 20.62 18.7725 20.62 17.8805V11.1508Z" fill="white"/>
</svg>
