<svg width="20" height="26" viewBox="0 0 20 26" fill="none" xmlns="http://www.w3.org/2000/svg">
<path d="M19.2676 9.32564C19.1266 9.43951 16.6361 10.8995 16.6361 14.1458C16.6361 17.9007 19.8051 19.2291 19.9 19.2619C19.8854 19.3429 19.3965 21.0812 18.2291 22.8524C17.1882 24.411 16.101 25.9671 14.4472 25.9671C12.7933 25.9671 12.3677 24.9677 10.4585 24.9677C8.59787 24.9677 7.93633 26 6.42355 26C4.91076 26 3.85521 24.5578 2.64158 22.7866C1.2358 20.7067 0.0999985 17.4756 0.0999985 14.4089C0.0999985 9.49011 3.17422 6.88142 6.19979 6.88142C7.80743 6.88142 9.14754 7.97955 10.1569 7.97955C11.1176 7.97955 12.6158 6.81563 14.4447 6.81563C15.1379 6.81563 17.6284 6.88142 19.2676 9.32564ZM13.5765 4.73324C14.3328 3.79957 14.8679 2.50408 14.8679 1.20859C14.8679 1.02895 14.8533 0.846767 14.8217 0.700012C13.591 0.748087 12.1269 1.55271 11.244 2.61794C10.5509 3.43775 9.90393 4.73324 9.90393 6.04644C9.90393 6.2438 9.93555 6.44116 9.95014 6.50441C10.028 6.51959 10.1544 6.53731 10.2809 6.53731C11.3851 6.53731 12.7738 5.76811 13.5765 4.73324Z" fill="white"/>
</svg>
