<svg width="30" height="30" viewBox="0 0 30 30" fill="none" xmlns="http://www.w3.org/2000/svg">
<path d="M2.80418 16.1778L2.80417 16.1778C2.19922 16.7336 2.19922 17.6348 2.80417 18.1906L13.7579 28.255C14.3629 28.8109 15.3437 28.8109 15.9487 28.255C16.5536 27.6992 16.5536 26.798 15.9487 26.2422L4.99492 16.1778C4.38997 15.6219 3.40914 15.6219 2.80418 16.1778Z" fill="#E41B9F"/>
<path fill-rule="evenodd" clip-rule="evenodd" d="M0.512989 8.35079L6.11256 3.20582C9.81928 -0.199945 14.0518 0.0657551 17.3642 3.10926C17.7849 3.49572 18.3106 4.17201 18.6261 4.60679C18.7576 4.77591 18.8364 4.8967 18.9415 4.99326C19.1519 5.18653 19.3622 5.23485 19.8091 5.11405C22.5695 4.4136 24.9881 5.18653 27.3015 7.31211C30.535 10.2831 30.8767 14.2686 26.7757 18.0368L18.9153 25.259C18.4946 25.6455 18.1529 25.6213 17.7323 25.2348L0.539274 9.4377C0.118653 9.05124 0.0923675 8.73725 0.512989 8.35079ZM12.0019 11.0802L13.3426 9.84824C14.0262 9.22027 14.1313 8.35071 13.3163 7.60194C12.5277 6.87726 11.555 6.94973 10.8715 7.57778L9.53073 8.80965C9.11012 9.19611 9.13641 9.5101 9.55703 9.89656L10.8189 11.056C11.2395 11.4425 11.5813 11.4667 12.0019 11.0802ZM18.4164 16.9746L21.9392 13.7378C22.9645 12.7958 23.1748 11.9262 22.3072 11.1291C21.466 10.3562 20.4933 10.5252 19.468 11.4673L15.9454 14.704C15.5247 15.0905 15.551 15.4045 15.9716 15.7909L17.2335 16.9504C17.6541 17.3369 17.9958 17.361 18.4164 16.9746Z" fill="#2926CF"/>
</svg>
