<svg width="20" height="20" viewBox="0 0 20 20" fill="none" xmlns="http://www.w3.org/2000/svg">
<path fill-rule="evenodd" clip-rule="evenodd" d="M13.8759 5.39199H14.0555C16.4169 5.39199 18.3334 7.26699 18.3334 9.56699V14.167C18.3334 16.467 16.4169 18.3337 14.0555 18.3337H5.94464C3.58324 18.3337 1.66675 16.467 1.66675 14.167V9.56699C1.66675 7.26699 3.58324 5.39199 5.94464 5.39199H6.12431C6.14142 4.39199 6.54355 3.45866 7.27079 2.75866C8.00659 2.05033 8.94772 1.69199 10.0086 1.66699C12.1305 1.66699 13.8502 3.33366 13.8759 5.39199ZM8.16916 3.65033C7.69003 4.11699 7.4248 4.73366 7.40769 5.39199H12.5925C12.5668 4.02533 11.4204 2.91699 10.0087 2.91699C9.34985 2.91699 8.66539 3.17533 8.16916 3.65033ZM13.2513 8.60032C13.6106 8.60032 13.8929 8.31699 13.8929 7.97532V7.00866C13.8929 6.66699 13.6106 6.38366 13.2513 6.38366C12.9005 6.38366 12.6096 6.66699 12.6096 7.00866V7.97532C12.6096 8.31699 12.9005 8.60032 13.2513 8.60032ZM7.31354 7.97532C7.31354 8.31699 7.0312 8.60032 6.67186 8.60032C6.32107 8.60032 6.03018 8.31699 6.03018 7.97532V7.00866C6.03018 6.66699 6.32107 6.38366 6.67186 6.38366C7.0312 6.38366 7.31354 6.66699 7.31354 7.00866V7.97532Z" fill="white"/>
</svg>
