<svg width="20" height="20" viewBox="0 0 20 20" fill="none" xmlns="http://www.w3.org/2000/svg">
<g clip-path="url(#clip0_9_326)">
<path d="M14.1666 3.75H5.83325C3.76659 3.75 2.08325 5.43333 2.08325 7.5H17.9166C17.9166 5.43333 16.2333 3.75 14.1666 3.75ZM2.08325 9.16667V12.5C2.08325 14.5667 3.76659 16.25 5.83325 16.25H14.1666C16.2333 16.25 17.9166 14.5667 17.9166 12.5V9.16667H2.08325ZM8.33325 13.3333H5.83325C5.37492 13.3333 4.99992 12.9583 4.99992 12.5C4.99992 12.0417 5.37492 11.6667 5.83325 11.6667H8.33325C8.79159 11.6667 9.16659 12.0417 9.16659 12.5C9.16659 12.9583 8.79159 13.3333 8.33325 13.3333Z" fill="white"/>
</g>
<defs>
<clipPath id="clip0_9_326">
<rect width="20" height="20" fill="white"/>
</clipPath>
</defs>
</svg>
