<svg width="20" height="20" viewBox="0 0 20 20" fill="none" xmlns="http://www.w3.org/2000/svg">
<path d="M11.6505 1.19727C7.89859 3.35904 8.34948 9.44983 8.34948 9.44983C8.34948 9.44983 6.69898 8.89965 6.69898 6.4239C4.72981 7.56574 3.39795 9.76044 3.39795 12.2007C3.39795 15.8469 6.35379 18.8027 10 18.8027C13.6462 18.8027 16.6021 15.8469 16.6021 12.2007C16.602 6.83653 11.6505 5.73617 11.6505 1.19727V1.19727ZM10.5799 16.5279C9.25326 16.8586 7.90959 16.0513 7.57875 14.7246C7.24799 13.3979 8.05531 12.0542 9.38204 11.7234C12.585 10.9248 12.9864 9.12366 12.9864 9.12366C12.9864 9.12366 14.5836 15.5296 10.5799 16.5279Z" fill="#5142FC"/>
</svg>
