<svg width="20" height="24" viewBox="0 0 20 24" fill="none" xmlns="http://www.w3.org/2000/svg">
<rect x="5" y="8" width="13" height="4" fill="white" fill-opacity="0.4"/>
<path fill-rule="evenodd" clip-rule="evenodd" d="M6.38335 0.800049H13.5817C16.7434 0.800049 19.2984 1.9984 19.3334 5.04468V22.0456C19.3334 22.236 19.2867 22.4264 19.1934 22.5944C19.0417 22.8632 18.785 23.0648 18.47 23.1544C18.1667 23.244 17.8284 23.1992 17.5484 23.0424L9.98835 19.4137L2.41669 23.0424C2.24285 23.1309 2.04335 23.188 1.84502 23.188C1.19169 23.188 0.666687 22.6728 0.666687 22.0456V5.04468C0.666687 1.9984 3.23335 0.800049 6.38335 0.800049ZM5.59075 9.33442H14.3757C14.8774 9.33442 15.2857 8.94132 15.2857 8.44966C15.2857 7.95688 14.8774 7.56489 14.3757 7.56489H5.59075C5.08908 7.56489 4.68075 7.95688 4.68075 8.44966C4.68075 8.94132 5.08908 9.33442 5.59075 9.33442Z" fill="white"/>
</svg>
