<svg width="30" height="30" viewBox="0 0 30 30" fill="none" xmlns="http://www.w3.org/2000/svg">
<path d="M29.7935 15.0003C29.7935 23.1705 23.1702 29.7938 15.0001 29.7938C6.82994 29.7938 0.206665 23.1705 0.206665 15.0003C0.206665 6.83018 6.82994 0.206909 15.0001 0.206909C23.1702 0.206909 29.7935 6.83018 29.7935 15.0003Z" fill="#0052FF"/>
<path d="M15.0034 9.79918C12.1299 9.79918 9.80253 12.1266 9.80253 15C9.80253 17.8734 12.1299 20.2008 15.0034 20.2008C17.5778 20.2008 19.7144 18.3242 20.1262 15.8668H25.366C24.9239 21.2063 20.4555 25.4016 15.0034 25.4016C9.26077 25.4016 4.60175 20.7426 4.60175 15C4.60175 9.25742 9.26077 4.59839 15.0034 4.59839C20.4555 4.59839 24.9239 8.79368 25.366 14.1332H20.1218C19.7101 11.6758 17.5778 9.79918 15.0034 9.79918Z" fill="white"/>
</svg>
