<svg width="24" height="24" viewBox="0 0 24 24" fill="none" xmlns="http://www.w3.org/2000/svg">
<path d="M7.43037 0.800049H3.64479C2.0768 0.800049 0.800003 2.08804 0.800003 3.66835V7.48642C0.800003 9.07681 2.0768 10.3536 3.64479 10.3536H7.43037C9.00956 10.3536 10.2752 9.07681 10.2752 7.48642V3.66835C10.2752 2.08804 9.00956 0.800049 7.43037 0.800049Z" fill="white"/>
<path d="M7.43037 13.6461H3.64479C2.0768 13.6461 0.800003 14.924 0.800003 16.5144V20.3325C0.800003 21.9117 2.0768 23.1997 3.64479 23.1997H7.43037C9.00956 23.1997 10.2752 21.9117 10.2752 20.3325V16.5144C10.2752 14.924 9.00956 13.6461 7.43037 13.6461Z" fill="white"/>
<path d="M20.3549 0.800049H16.5693C14.9901 0.800049 13.7245 2.08804 13.7245 3.66835V7.48642C13.7245 9.07681 14.9901 10.3536 16.5693 10.3536H20.3549C21.9228 10.3536 23.1996 9.07681 23.1996 7.48642V3.66835C23.1996 2.08804 21.9228 0.800049 20.3549 0.800049Z" fill="white" fill-opacity="0.4"/>
<path d="M20.3549 13.6461H16.5693C14.9901 13.6461 13.7245 14.924 13.7245 16.5144V20.3325C13.7245 21.9117 14.9901 23.1997 16.5693 23.1997H20.3549C21.9228 23.1997 23.1996 21.9117 23.1996 20.3325V16.5144C23.1996 14.924 21.9228 13.6461 20.3549 13.6461Z" fill="white"/>
</svg>
