<svg width="20" height="20" viewBox="0 0 20 20" fill="none" xmlns="http://www.w3.org/2000/svg">
<path d="M9.99199 1.66699C5.39199 1.66699 1.66699 5.40033 1.66699 10.0003C1.66699 14.6003 5.39199 18.3337 9.99199 18.3337C14.6003 18.3337 18.3337 14.6003 18.3337 10.0003C18.3337 5.40033 14.6003 1.66699 9.99199 1.66699ZM13.3337 13.3337C13.2566 13.4109 13.165 13.4722 13.0642 13.514C12.9634 13.5558 12.8553 13.5774 12.7462 13.5774C12.637 13.5774 12.529 13.5558 12.4281 13.514C12.3273 13.4722 12.2358 13.4109 12.1587 13.3337L9.41699 10.592C9.33825 10.5148 9.27561 10.4228 9.2327 10.3212C9.18978 10.2197 9.16745 10.1106 9.16699 10.0003V6.66699C9.16699 6.20866 9.54199 5.83366 10.0003 5.83366C10.4587 5.83366 10.8337 6.20866 10.8337 6.66699V9.65866L13.3337 12.1587C13.6587 12.4837 13.6587 13.0087 13.3337 13.3337Z" fill="white"/>
</svg>
