<svg width="20" height="20" viewBox="0 0 20 20" fill="none" xmlns="http://www.w3.org/2000/svg">
<path fill-rule="evenodd" clip-rule="evenodd" d="M2.63818 18.1891C2.51728 18.3066 2.35936 18.3653 2.20227 18.3653C2.04435 18.3653 1.88562 18.3066 1.76553 18.1875C1.52455 17.9519 1.52537 17.5706 1.76636 17.335L9.13487 10.0001L1.7664 2.66569C1.52542 2.43003 1.5246 2.04798 1.76558 1.81232C2.00574 1.57505 2.39642 1.57665 2.63823 1.81071L10 9.13889L17.3619 1.81071C17.6037 1.57665 17.9944 1.57505 18.2345 1.81232C18.4755 2.04798 18.4747 2.43003 18.2337 2.66569L10.8652 10.0001L18.2337 17.335C18.4747 17.5706 18.4755 17.9519 18.2346 18.1875C18.1145 18.3066 17.9557 18.3653 17.7978 18.3653C17.6407 18.3653 17.4828 18.3066 17.3619 18.1891L10 10.8613L2.63818 18.1891Z" fill="white"/>
<path d="M2.63818 18.1891L2.98657 18.5478L2.99092 18.5435L2.63818 18.1891ZM1.76553 18.1875L2.11755 17.8324L2.11512 17.8301L1.76553 18.1875ZM1.76636 17.335L2.11595 17.6925L2.1191 17.6893L1.76636 17.335ZM9.13487 10.0001L9.48762 10.3545L9.84361 10.0001L9.48761 9.64574L9.13487 10.0001ZM1.7664 2.66569L2.11915 2.31131L2.11599 2.30821L1.7664 2.66569ZM1.76558 1.81232L2.11517 2.1698L2.11699 2.16801L1.76558 1.81232ZM2.63823 1.81071L2.99101 1.45631L2.98598 1.45144L2.63823 1.81071ZM10 9.13889L9.6473 9.49325L10 9.84438L10.3528 9.49325L10 9.13889ZM17.3619 1.81071L17.0141 1.45141L17.0091 1.45635L17.3619 1.81071ZM18.2345 1.81232L17.8831 2.16801L17.8849 2.1698L18.2345 1.81232ZM18.2337 2.66569L17.8841 2.3082L17.881 2.31132L18.2337 2.66569ZM10.8652 10.0001L10.5125 9.64574L10.1565 10.0001L10.5125 10.3545L10.8652 10.0001ZM18.2337 17.335L17.881 17.6893L17.8842 17.6924L18.2337 17.335ZM18.2346 18.1875L17.885 17.83L17.8826 17.8324L18.2346 18.1875ZM17.3619 18.1891L17.0092 18.5435L17.0136 18.5478L17.3619 18.1891ZM10 10.8613L10.3528 10.5069L10 10.1558L9.64731 10.5069L10 10.8613ZM2.20227 18.8653C2.48305 18.8653 2.76784 18.7602 2.98654 18.5478L2.28982 17.8305C2.26672 17.8529 2.23567 17.8653 2.20227 17.8653V18.8653ZM1.41353 18.5426C1.63355 18.7607 1.92166 18.8653 2.20227 18.8653V17.8653C2.16705 17.8653 2.13768 17.8524 2.11754 17.8324L1.41353 18.5426ZM1.41677 16.9775C0.97614 17.4084 0.973501 18.1123 1.41595 18.545L2.11512 17.8301C2.07559 17.7914 2.0746 17.7329 2.11594 17.6924L1.41677 16.9775ZM8.78213 9.64575L1.41361 16.9806L2.1191 17.6893L9.48762 10.3545L8.78213 9.64575ZM9.48761 9.64574L2.11914 2.31132L1.41367 3.02006L8.78214 10.3545L9.48761 9.64574ZM2.11599 2.30821C2.07465 2.26779 2.07564 2.20845 2.11517 2.1698L1.416 1.45484C0.97355 1.88751 0.976188 2.59227 1.41682 3.02317L2.11599 2.30821ZM2.11699 2.16801C2.16042 2.1251 2.24053 2.12162 2.29048 2.16998L2.98598 1.45144C2.55232 1.03169 1.85107 1.025 1.41418 1.45663L2.11699 2.16801ZM2.28549 2.16507L9.6473 9.49325L10.3528 8.78453L2.99097 1.45635L2.28549 2.16507ZM17.0091 1.45635L9.6473 8.78453L10.3528 9.49325L17.7146 2.16507L17.0091 1.45635ZM18.5859 1.45663C18.149 1.025 17.4478 1.03169 17.0141 1.45144L17.7096 2.16997C17.7596 2.12162 17.8397 2.12509 17.8831 2.16801L18.5859 1.45663ZM18.5833 3.02317C19.0239 2.59227 19.0265 1.88751 18.5841 1.45484L17.8849 2.1698C17.9245 2.20845 17.9254 2.26779 17.8841 2.30821L18.5833 3.02317ZM11.218 10.3545L18.5864 3.02006L17.881 2.31132L10.5125 9.64574L11.218 10.3545ZM10.5125 10.3545L17.881 17.6893L18.5865 16.9806L11.218 9.64575L10.5125 10.3545ZM17.8842 17.6924C17.9255 17.7329 17.9245 17.7914 17.885 17.8301L18.5841 18.545C19.0266 18.1123 19.024 17.4084 18.5833 16.9775L17.8842 17.6924ZM17.8826 17.8324C17.8624 17.8524 17.833 17.8653 17.7978 17.8653V18.8653C18.0784 18.8653 18.3665 18.7607 18.5866 18.5426L17.8826 17.8324ZM17.7978 17.8653C17.7644 17.8653 17.7334 17.8529 17.7103 17.8305L17.0136 18.5478C17.2323 18.7602 17.517 18.8653 17.7978 18.8653V17.8653ZM17.7146 17.8348L10.3528 10.5069L9.64731 11.2157L17.0092 18.5435L17.7146 17.8348ZM2.99092 18.5435L10.3528 11.2157L9.64731 10.5069L2.28545 17.8348L2.99092 18.5435Z" fill="white"/>
</svg>
