<svg width="16" height="16" viewBox="0 0 16 16" fill="none" xmlns="http://www.w3.org/2000/svg">
<path fill-rule="evenodd" clip-rule="evenodd" d="M4.00022 8C4.00022 9.10457 3.10481 10 2.00026 10C0.895717 10 0.000305176 9.10457 0.000305176 8C0.000305176 6.89543 0.895717 6 2.00026 6C3.10481 6 4.00022 6.89543 4.00022 8ZM10.0001 8C10.0001 9.10457 9.10469 10 8.00014 10C6.8956 10 6.00018 9.10457 6.00018 8C6.00018 6.89543 6.8956 6 8.00014 6C9.10469 6 10.0001 6.89543 10.0001 8ZM14 10C15.1046 10 16 9.10457 16 8C16 6.89543 15.1046 6 14 6C12.8955 6 12.0001 6.89543 12.0001 8C12.0001 9.10457 12.8955 10 14 10Z" fill="white"/>
</svg>
