<svg width="20" height="20" viewBox="0 0 20 20" fill="none" xmlns="http://www.w3.org/2000/svg">
<path fill-rule="evenodd" clip-rule="evenodd" d="M9.99951 19.5586C15.2788 19.5586 19.5586 15.2788 19.5586 9.99951C19.5586 4.72018 15.2788 0.44043 9.99951 0.44043C4.72018 0.44043 0.44043 4.72018 0.44043 9.99951C0.44043 15.2788 4.72018 19.5586 9.99951 19.5586ZM14.5889 5.41082C14.2742 5.09614 13.764 5.09613 13.4494 5.4108L9.99961 8.86048L6.54985 5.4108C6.23517 5.09613 5.72499 5.09614 5.41032 5.41082C5.09565 5.72549 5.09565 6.23568 5.41033 6.55035L8.86006 10L5.41033 13.4496C5.09565 13.7643 5.09564 14.2745 5.41032 14.5892C5.72499 14.9039 6.23517 14.9039 6.54985 14.5892L9.99961 11.1395L13.4494 14.5892C13.764 14.9039 14.2742 14.9039 14.5889 14.5892C14.9036 14.2745 14.9036 13.7643 14.5889 13.4496L11.1392 10L14.5889 6.55035C14.9036 6.23568 14.9036 5.72549 14.5889 5.41082Z" fill="white"/>
</svg>
