<svg width="16" height="16" viewBox="0 0 16 16" fill="none" xmlns="http://www.w3.org/2000/svg">
<path fill-rule="evenodd" clip-rule="evenodd" d="M7.99985 12.883C5.25023 12.8823 2.74381 11.062 1.2558 8.0003C2.74381 4.93939 5.25103 3.11909 7.99985 3.11834C10.7495 3.11909 13.2559 4.93939 14.7439 8.0003C13.2559 11.062 10.7495 12.8823 7.99985 12.883ZM7.99826 14.0006H8.00146H8.00226C11.3111 13.9983 14.2831 11.8382 15.9511 8.22074C16.0167 8.07991 16.0167 7.92046 15.9511 7.77963C14.2823 4.16287 11.3111 2.00279 8.00226 2.00056C8.00146 1.99981 8.00146 1.99981 7.99986 2.00056C7.99906 1.99981 7.99906 1.99981 7.99746 2.00056C4.68944 2.00279 1.71741 4.16287 0.0486004 7.77963C-0.0162001 7.92046 -0.0162001 8.07991 0.0486004 8.22074C1.71741 11.8382 4.68864 13.9983 7.99746 14.0006H7.99826ZM6.0708 8.00033C6.0708 7.00933 6.93561 6.20312 7.99962 6.20312C9.06362 6.20312 9.92923 7.00933 9.92923 8.00033C9.92923 8.99058 9.06362 9.79605 7.99962 9.79605C6.93561 9.79605 6.0708 8.99058 6.0708 8.00033ZM4.87061 8.00081C4.87061 9.60727 6.27382 10.9142 7.99943 10.9142C9.72504 10.9142 11.1291 9.60727 11.1291 8.00081C11.1291 6.39361 9.72504 5.08594 7.99943 5.08594C6.27382 5.08594 4.87061 6.39361 4.87061 8.00081Z" fill="#555770"/>
</svg>
