<svg width="20" height="20" viewBox="0 0 20 20" fill="none" xmlns="http://www.w3.org/2000/svg">
<path fill-rule="evenodd" clip-rule="evenodd" d="M9.99981 16.1038C6.56279 16.1028 3.42976 13.8275 1.56975 10.0004C3.42976 6.17424 6.56379 3.89886 9.99981 3.89793C13.4368 3.89886 16.5699 6.17424 18.4299 10.0004C16.5699 13.8275 13.4368 16.1028 9.99981 16.1038ZM9.99783 17.5007H10.0018H10.0028C14.1389 17.4979 17.8539 14.7978 19.9389 10.2759C20.0209 10.0999 20.0209 9.90057 19.9389 9.72454C17.8529 5.20359 14.1389 2.50349 10.0028 2.5007C10.0018 2.49977 10.0018 2.49977 9.99983 2.5007C9.99883 2.49977 9.99883 2.49977 9.99683 2.5007C5.86179 2.50349 2.14677 5.20359 0.0607505 9.72454C-0.0202502 9.90057 -0.0202502 10.0999 0.0607505 10.2759C2.14677 14.7978 5.86079 17.4979 9.99683 17.5007H9.99783ZM7.5885 10.0004C7.5885 8.76167 8.66951 7.75391 9.99952 7.75391C11.3295 7.75391 12.4115 8.76167 12.4115 10.0004C12.4115 11.2382 11.3295 12.2451 9.99952 12.2451C8.66951 12.2451 7.5885 11.2382 7.5885 10.0004ZM6.08826 10.001C6.08826 12.0091 7.84227 13.6427 9.99929 13.6427C12.1563 13.6427 13.9113 12.0091 13.9113 10.001C13.9113 7.99201 12.1563 6.35742 9.99929 6.35742C7.84227 6.35742 6.08826 7.99201 6.08826 10.001Z" fill="white"/>
</svg>
