<svg width="20" height="20" viewBox="0 0 20 20" fill="none" xmlns="http://www.w3.org/2000/svg">
<path d="M0.834961 10.0534C0.835931 14.1781 3.81696 17.6902 7.86579 18.3366V12.4766H5.75163V10.0534H7.8683V8.20879C7.77367 7.33472 8.0704 6.4636 8.67799 5.83168C9.28559 5.19977 10.1411 4.87255 11.0125 4.93878C11.6379 4.94894 12.2618 5.00499 12.8791 5.10647V7.16825H11.8258C11.4632 7.12047 11.0986 7.24097 10.8348 7.49581C10.571 7.75066 10.4364 8.11227 10.4691 8.47877V10.0534H12.7783L12.4091 12.4774H10.4691V18.3366C14.8479 17.6403 17.9184 13.6167 17.4562 9.18063C16.9941 4.74456 13.161 1.44903 8.73398 1.6815C4.30693 1.91396 0.835665 5.59304 0.834961 10.0534Z" fill="white"/>
</svg>
