<svg width="56" height="56" viewBox="0 0 56 56" fill="none" xmlns="http://www.w3.org/2000/svg">
<path d="M0 18C0 8.05888 8.05888 0 18 0H38C47.9411 0 56 8.05888 56 18V38C56 47.9411 47.9411 56 38 56H18C8.05888 56 0 47.9411 0 38V18Z" fill="#1C1C28"/>
<path d="M28 44.3613C28 36.3978 39.1587 34.2479 39.1587 24.9337C39.1587 18.6169 34.1628 13.4961 28 13.4961C21.8373 13.4961 16.8414 18.6169 16.8414 24.9337C16.8414 34.2268 28 36.3905 28 44.3613ZM27.0199 17.4371C29.3571 17.4371 31.5332 18.2628 32.0924 20.5612C32.6514 22.8596 31.5995 25.0482 29.3571 25.6212C25.7886 26.5331 26.0323 29.9065 28 31.1745C17.4633 30.3437 19.5722 17.4371 27.0199 17.4371Z" fill="url(#paint0_linear_1_3936)"/>
<defs>
<linearGradient id="paint0_linear_1_3936" x1="19.631" y1="43.9966" x2="43.2677" y2="20.6774" gradientUnits="userSpaceOnUse">
<stop stop-color="#F94800"/>
<stop offset="1" stop-color="#4B50E6"/>
</linearGradient>
</defs>
</svg>
