<svg width="20" height="20" viewBox="0 0 20 20" fill="none" xmlns="http://www.w3.org/2000/svg">
<g clip-path="url(#clip0_9_328)">
<path d="M17.9166 14.7002V15.1252C17.9166 15.7419 17.7082 16.3336 17.3249 16.8086C17.1832 16.9919 16.9499 17.0837 16.7082 17.0837H14.4749C14.8166 16.492 14.9999 15.8169 14.9999 15.1252V14.7002C14.9999 13.5002 14.5583 12.3921 13.8083 11.5504C13.8666 11.5337 13.9166 11.5003 13.9666 11.4753C14.3499 11.2587 14.8249 11.192 15.2749 11.3004C16.8249 11.692 17.9166 13.0836 17.9166 14.7002ZM12.0833 2.91699C11.8166 2.91699 11.5583 2.94207 11.3083 3.00041C12.2999 3.90874 12.9166 5.21699 12.9166 6.66699C12.9166 8.11699 12.2999 9.42525 11.3083 10.3336C11.5583 10.3919 11.8166 10.417 12.0833 10.417C14.1499 10.417 15.8333 8.73366 15.8333 6.66699C15.8333 4.60033 14.1499 2.91699 12.0833 2.91699ZM7.91659 2.91699C5.84992 2.91699 4.16659 4.60033 4.16659 6.66699C4.16659 8.73366 5.84992 10.417 7.91659 10.417C9.98325 10.417 11.6666 8.73366 11.6666 6.66699C11.6666 4.60033 9.98325 2.91699 7.91659 2.91699ZM11.1083 11.3004C10.9583 11.267 10.8166 11.2503 10.6666 11.2503C10.3582 11.2503 10.0583 11.3253 9.79993 11.4753C9.21659 11.792 8.56659 11.9504 7.91659 11.9504C7.26659 11.9504 6.62493 11.792 6.04993 11.4837C5.77493 11.3337 5.46659 11.2503 5.15825 11.2503C5.02492 11.2503 4.8999 11.267 4.7749 11.292C3.19157 11.6587 2.08325 13.0669 2.08325 14.7002V15.1252C2.08325 15.7419 2.2916 16.3336 2.67494 16.8086C2.8166 16.9919 3.04993 17.0837 3.2916 17.0837H12.5416C12.7832 17.0837 13.0166 16.9919 13.1582 16.8086C13.5416 16.3336 13.7499 15.7419 13.7499 15.1252V14.7002C13.7499 13.0836 12.6583 11.692 11.1083 11.3004Z" fill="white"/>
</g>
<defs>
<clipPath id="clip0_9_328">
<rect width="20" height="20" fill="white"/>
</clipPath>
</defs>
</svg>
