<svg width="20" height="20" viewBox="0 0 20 20" fill="none" xmlns="http://www.w3.org/2000/svg">
<path d="M10.1744 8.63174V11.5304H14.2903C13.9072 13.3725 12.3037 14.4308 10.1744 14.4308C7.69441 14.3974 5.70187 12.4218 5.70187 9.99625C5.70187 7.57068 7.69441 5.59508 10.1744 5.5617C11.2053 5.56049 12.2044 5.91034 13.0002 6.55117L15.2334 4.36728C12.6718 2.16497 8.93076 1.88171 6.05307 3.67217C3.17537 5.46263 1.85259 8.8965 2.80702 12.0988C3.76145 15.301 6.76371 17.502 10.1744 17.5C14.0111 17.5 17.5 14.771 17.5 9.99583C17.4941 9.53607 17.4365 9.07834 17.3282 8.6309L10.1744 8.63174Z" fill="white"/>
</svg>
