<svg width="16" height="16" viewBox="0 0 16 16" fill="none" xmlns="http://www.w3.org/2000/svg">
<g clip-path="url(#clip0_988_2490)">
<path d="M14.7145 2.64672C12.9744 0.907059 10.1436 0.907059 8.40393 2.64672L7.99986 3.05055L7.59603 2.64672C5.85637 0.906824 3.02531 0.906824 1.28565 2.64672C-0.418689 4.35105 -0.429756 7.05261 1.25998 8.93096C2.80114 10.6435 7.34643 14.3435 7.53928 14.5001C7.6702 14.6065 7.82773 14.6583 7.98432 14.6583C7.9895 14.6583 7.99468 14.6583 7.99963 14.6581C8.16163 14.6656 8.32481 14.61 8.45997 14.5001C8.65282 14.3435 13.1986 10.6435 14.7402 8.93072C16.4297 7.05261 16.4186 4.35105 14.7145 2.64672ZM13.69 7.98578C12.4884 9.32066 9.18546 12.0738 7.99963 13.0508C6.8138 12.074 3.51155 9.32114 2.31018 7.98602C1.13142 6.67586 1.12035 4.80999 2.28452 3.64582C2.87908 3.05149 3.6599 2.75409 4.44072 2.75409C5.22154 2.75409 6.00236 3.05126 6.59693 3.64582L7.48512 4.53401C7.59085 4.63974 7.72412 4.70285 7.86399 4.72498C8.09099 4.77372 8.33729 4.71038 8.51389 4.53425L9.40256 3.64582C10.5919 2.45693 12.5266 2.45716 13.7152 3.64582C14.8794 4.80999 14.8683 6.67586 13.69 7.98578Z" fill="#555770"/>
</g>
<defs>
<clipPath id="clip0_988_2490">
<rect width="16" height="16" fill="white"/>
</clipPath>
</defs>
</svg>
