<svg width="14" height="14" viewBox="0 0 14 14" fill="none" xmlns="http://www.w3.org/2000/svg">
<path fill-rule="evenodd" clip-rule="evenodd" d="M13.6913 7.00044C13.6913 10.696 10.6955 13.6918 6.99995 13.6918C3.30442 13.6918 0.308594 10.696 0.308594 7.00044C0.308594 3.3049 3.30442 0.309082 6.99995 0.309082C10.6955 0.309082 13.6913 3.3049 13.6913 7.00044ZM11.1328 5.23527C11.3734 4.93265 11.3231 4.4923 11.0205 4.25171C10.7179 4.01112 10.2775 4.06139 10.0369 4.36401L6.55156 8.5354L4.30929 6.4841C4.02404 6.22315 3.58127 6.24285 3.32032 6.52809C3.05937 6.81333 3.07906 7.25611 3.3643 7.51706L6.16011 10.0748C6.30329 10.2057 6.49443 10.2714 6.68789 10.2561C6.88135 10.2408 7.05976 10.1458 7.18053 9.99391L11.1328 5.23527Z" fill="#8A8AA0"/>
</svg>
