<svg width="14" height="14" viewBox="0 0 14 14" fill="none" xmlns="http://www.w3.org/2000/svg">
<path fill-rule="evenodd" clip-rule="evenodd" d="M6.99995 13.6908C10.6955 13.6908 13.6913 10.695 13.6913 6.99946C13.6913 3.30393 10.6955 0.308105 6.99995 0.308105C3.30442 0.308105 0.308594 3.30393 0.308594 6.99946C0.308594 10.695 3.30442 13.6908 6.99995 13.6908ZM10.2125 3.78738C9.99226 3.5671 9.63513 3.5671 9.41485 3.78737L7.00002 6.20214L4.58519 3.78737C4.36491 3.5671 4.00778 3.5671 3.78751 3.78738C3.56724 4.00765 3.56725 4.36478 3.78752 4.58505L6.20234 6.9998L3.78752 9.41456C3.56725 9.63483 3.56724 9.99196 3.78751 10.2122C4.00778 10.4325 4.36491 10.4325 4.58519 10.2122L7.00002 7.79747L9.41485 10.2122C9.63513 10.4325 9.99226 10.4325 10.2125 10.2122C10.4328 9.99196 10.4328 9.63483 10.2125 9.41456L7.7977 6.9998L10.2125 4.58505C10.4328 4.36478 10.4328 4.00765 10.2125 3.78738Z" fill="#F94800"/>
</svg>
