<svg width="46" height="29" viewBox="0 0 46 29" fill="none" xmlns="http://www.w3.org/2000/svg">
<path d="M9.56379 5.91845C16.9844 -1.39157 29.0156 -1.39157 36.4362 5.91845L37.3293 6.79823C37.7004 7.16373 37.7004 7.75632 37.3293 8.12182L34.2743 11.1313C34.0887 11.3141 33.788 11.3141 33.6025 11.1313L32.3735 9.92068C27.1967 4.82102 18.8034 4.82102 13.6266 9.92068L12.3104 11.2172C12.1249 11.4 11.8241 11.4 11.6386 11.2172L8.58355 8.20768C8.21252 7.84218 8.21252 7.24958 8.58355 6.88408L9.56379 5.91845ZM42.7544 12.1425L45.4734 14.821C45.8444 15.1865 45.8444 15.7791 45.4734 16.1446L33.2132 28.2222C32.8422 28.5877 32.2406 28.5877 31.8696 28.2222C31.8696 28.2222 31.8696 28.2222 31.8696 28.2222L23.168 19.6504C23.0753 19.559 22.9249 19.559 22.8321 19.6504C22.8321 19.6504 22.8321 19.6504 22.8321 19.6504L14.1308 28.2222C13.7597 28.5877 13.1582 28.5877 12.7871 28.2222C12.7871 28.2222 12.7871 28.2222 12.7871 28.2222L0.52658 16.1444C0.155549 15.7789 0.155549 15.1863 0.52658 14.8208L3.2456 12.1423C3.61663 11.7768 4.21819 11.7768 4.58922 12.1423L13.2909 20.7143C13.3837 20.8057 13.534 20.8057 13.6268 20.7143C13.6268 20.7143 13.6268 20.7143 13.6268 20.7143L22.328 12.1423C22.6991 11.7768 23.3006 11.7768 23.6717 12.1423C23.6717 12.1423 23.6717 12.1423 23.6717 12.1423L32.3733 20.7143C32.4661 20.8057 32.6165 20.8057 32.7093 20.7143L41.4108 12.1425C41.7818 11.777 42.3834 11.777 42.7544 12.1425Z" fill="#3B99FC"/>
</svg>
