<svg width="20" height="20" viewBox="0 0 20 20" fill="none" xmlns="http://www.w3.org/2000/svg">
<path fill-rule="evenodd" clip-rule="evenodd" d="M1.97006 6.16166C1.97006 3.61739 3.52406 1.96819 5.92926 1.96819H14.0642C16.4778 1.96819 18.0318 3.61739 18.0318 6.16166V11.1102C17.6155 10.7574 16.3583 9.87912 16.1829 9.77459C14.8762 8.99059 13.3082 9.34526 12.2909 10.6706C12.2022 10.7873 10.7303 12.9339 10.2095 13.255C10.0891 13.3297 9.96219 13.3698 9.82686 13.3885C9.50019 13.4165 9.18566 13.2485 8.65086 12.891C8.34286 12.695 8.00686 12.4719 7.62419 12.3133C6.03286 11.6478 4.82046 12.7473 4.17459 13.4846C4.16619 13.4921 2.35833 15.6966 2.32939 15.7311C2.10259 15.1795 1.97006 14.5421 1.97006 13.8281V6.16166ZM19.3333 6.16209C19.3333 2.87116 17.2156 0.666626 14.0637 0.666626H5.9288C2.78627 0.666626 0.666672 2.87116 0.666672 6.16209V13.8285C0.666672 15.2957 1.08387 16.5454 1.82214 17.475C1.83054 17.4834 1.83054 17.4928 1.83894 17.4928C2.57347 18.4121 3.6216 19.0216 4.8844 19.239C4.89561 19.2409 4.90681 19.2428 4.91894 19.2446C5.24281 19.2978 5.57787 19.3333 5.9288 19.3333H14.0637C14.2327 19.3333 14.3867 19.3016 14.5491 19.2894C14.7395 19.2736 14.9364 19.2698 15.1175 19.2381C15.3573 19.197 15.5776 19.1252 15.8007 19.0561C15.8977 19.0253 16.0013 19.0066 16.0947 18.9712C16.3215 18.8853 16.5296 18.7742 16.7359 18.6604C16.8105 18.6193 16.8908 18.5857 16.9636 18.54C17.1661 18.413 17.35 18.2646 17.5301 18.1097C17.5899 18.0584 17.6543 18.0117 17.7112 17.9576C17.8867 17.7905 18.0416 17.6066 18.19 17.4144C18.2357 17.3537 18.2843 17.2977 18.3281 17.2352C18.4709 17.0317 18.5941 16.8124 18.708 16.5837C18.7397 16.5174 18.7733 16.453 18.8041 16.3858C18.9096 16.146 18.9973 15.8949 19.072 15.6317C19.0916 15.5608 19.1112 15.4908 19.128 15.418C19.1943 15.1464 19.2419 14.8664 19.2727 14.5733C19.2764 14.5378 19.2867 14.5052 19.2904 14.4697C19.2969 14.3904 19.296 14.311 19.3007 14.2317C19.3081 14.0954 19.3333 13.9694 19.3333 13.8285V6.16209Z" fill="white"/>
<path d="M6.73876 9.06657C8.00944 9.06657 9.06758 8.01182 9.06758 6.7472C9.06758 6.11309 8.80168 5.53212 8.37752 5.11058C7.95517 4.67372 7.36551 4.3999 6.71435 4.3999C5.43553 4.3999 4.40091 5.43033 4.40091 6.70396C4.40091 6.8724 4.42081 7.03543 4.45608 7.19396C4.66951 8.25051 5.62184 9.06657 6.73876 9.06657Z" fill="white" fill-opacity="0.4"/>
</svg>
