<svg width="20" height="20" viewBox="0 0 20 20" fill="none" xmlns="http://www.w3.org/2000/svg">
<g clip-path="url(#clip0_9_311)">
<path d="M17.8078 8.80135C17.012 12.8814 12.8295 15.7471 11.0687 16.7904C10.7387 16.9846 10.3695 17.083 10.0004 17.083C9.63119 17.083 9.26201 16.9854 8.93201 16.7904C7.17034 15.7471 2.98786 12.8822 2.19202 8.80135C1.85952 7.09552 2.31203 5.28708 3.40286 3.96208C4.40119 2.75041 5.78869 2.08301 7.31036 2.08301C8.26786 2.08301 9.19202 2.3255 10.0004 2.78634C10.8087 2.3255 11.7329 2.08301 12.6903 2.08301C14.212 2.08301 15.5995 2.75041 16.5978 3.96208C17.6878 5.28708 18.1403 7.09552 17.8078 8.80135Z" fill="white"/>
</g>
<defs>
<clipPath id="clip0_9_311">
<rect width="20" height="20" fill="white"/>
</clipPath>
</defs>
</svg>
