<svg width="20" height="20" viewBox="0 0 20 20" fill="none" xmlns="http://www.w3.org/2000/svg">
<g clip-path="url(#clip0_9_329)">
<path d="M9.99992 2.08301C5.63325 2.08301 2.08325 5.63301 2.08325 9.99967C2.08325 14.3663 5.63325 17.9163 9.99992 17.9163C14.3666 17.9163 17.9166 14.3663 17.9166 9.99967C17.9166 5.63301 14.3666 2.08301 9.99992 2.08301ZM10.8333 14.1663H9.16659C8.70825 14.1663 8.33325 13.7913 8.33325 13.333C8.33325 12.8747 8.70825 12.4997 9.16659 12.4997H10.8333C11.2916 12.4997 11.6666 12.8747 11.6666 13.333C11.6666 13.7913 11.2916 14.1663 10.8333 14.1663ZM12.0833 10.833H7.91659C7.45825 10.833 7.08325 10.458 7.08325 9.99967C7.08325 9.54134 7.45825 9.16634 7.91659 9.16634H12.0833C12.5416 9.16634 12.9166 9.54134 12.9166 9.99967C12.9166 10.458 12.5416 10.833 12.0833 10.833ZM13.3333 7.49967H6.66659C6.20825 7.49967 5.83325 7.12467 5.83325 6.66634C5.83325 6.20801 6.20825 5.83301 6.66659 5.83301H13.3333C13.7916 5.83301 14.1666 6.20801 14.1666 6.66634C14.1666 7.12467 13.7916 7.49967 13.3333 7.49967Z" fill="white"/>
</g>
<defs>
<clipPath id="clip0_9_329">
<rect width="20" height="20" fill="white"/>
</clipPath>
</defs>
</svg>
