<svg width="201" height="46" viewBox="0 0 201 46" fill="none" xmlns="http://www.w3.org/2000/svg">
<path d="M15 43.7451C15 33.0401 30 30.1501 30 17.6296C30 9.13825 23.2843 2.2546 15 2.2546C6.71572 2.2546 -1.90735e-06 9.13825 -1.90735e-06 17.6296C7.82013e-05 30.1218 15 33.0303 15 43.7451ZM13.6824 7.55235C16.8242 7.55235 19.7495 8.66219 20.5011 11.7519C21.2526 14.8415 19.8386 17.7835 16.8242 18.5538C12.0273 19.7796 12.3549 24.3142 15 26.0188C0.836086 24.902 3.67088 7.55235 13.6824 7.55235Z" fill="url(#paint0_linear_1_1155)"/>
<path fill-rule="evenodd" clip-rule="evenodd" d="M85.2266 10V37H89.6186V10H85.2266ZM154.836 37V10H159.228V37H154.836ZM181.237 19H176.845L177.043 21.304C176.383 20.488 175.579 19.816 174.631 19.288C173.695 18.76 172.633 18.496 171.445 18.496C170.161 18.496 168.961 18.736 167.845 19.216C166.729 19.696 165.745 20.362 164.893 21.214C164.041 22.066 163.375 23.056 162.895 24.184C162.427 25.312 162.193 26.518 162.193 27.802C162.193 29.134 162.439 30.382 162.931 31.546C163.435 32.71 164.125 33.736 165.001 34.624C165.889 35.512 166.915 36.208 168.079 36.712C169.243 37.216 170.491 37.468 171.823 37.468C172.927 37.468 173.881 37.222 174.685 36.73C175.501 36.226 176.155 35.572 176.647 34.768L176.845 37H181.237V19ZM174.199 32.536C173.479 33.004 172.651 33.238 171.715 33.238C170.803 33.238 169.963 33.004 169.195 32.536C168.439 32.068 167.833 31.438 167.377 30.646C166.921 29.854 166.693 28.972 166.693 28C166.693 27.028 166.915 26.146 167.359 25.354C167.815 24.562 168.421 23.932 169.177 23.464C169.945 22.984 170.791 22.744 171.715 22.744C172.639 22.744 173.461 22.978 174.181 23.446C174.913 23.914 175.483 24.55 175.891 25.354C176.299 26.146 176.503 27.028 176.503 28C176.503 28.96 176.299 29.842 175.891 30.646C175.483 31.438 174.919 32.068 174.199 32.536ZM200.85 19H196.188L191.796 30.988L187.926 19H183.12L189.6 37L186.342 46H191.004L200.85 19ZM141.477 19L141.495 37H145.887V26.776C145.887 26.068 146.055 25.426 146.391 24.85C146.739 24.262 147.201 23.8 147.777 23.464C148.365 23.116 149.013 22.942 149.721 22.942C150.177 22.942 150.633 23.032 151.089 23.212L152.817 18.784C152.157 18.592 151.497 18.496 150.837 18.496C149.853 18.496 148.935 18.688 148.083 19.072C147.231 19.444 146.499 19.954 145.887 20.602L145.869 19H141.477ZM129.674 37.468C128.018 37.468 126.506 37.042 125.138 36.19C123.782 35.338 122.696 34.192 121.88 32.752C121.076 31.312 120.674 29.722 120.674 27.982C120.674 26.674 120.908 25.45 121.376 24.31C121.844 23.158 122.486 22.15 123.302 21.286C124.13 20.41 125.09 19.726 126.182 19.234C127.274 18.742 128.438 18.496 129.674 18.496C131.078 18.496 132.362 18.796 133.526 19.396C134.702 19.984 135.698 20.794 136.514 21.826C137.33 22.858 137.924 24.034 138.296 25.354C138.668 26.674 138.752 28.054 138.548 29.494H125.39C125.558 30.166 125.834 30.772 126.218 31.312C126.602 31.84 127.088 32.266 127.676 32.59C128.264 32.902 128.93 33.064 129.674 33.076C130.442 33.088 131.138 32.908 131.762 32.536C132.398 32.152 132.926 31.636 133.346 30.988L137.828 32.032C137.096 33.628 136.004 34.936 134.552 35.956C133.1 36.964 131.474 37.468 129.674 37.468ZM125.246 26.2H134.102C133.97 25.48 133.688 24.832 133.256 24.256C132.836 23.668 132.314 23.2 131.69 22.852C131.066 22.504 130.394 22.33 129.674 22.33C128.954 22.33 128.288 22.504 127.676 22.852C127.064 23.188 126.542 23.65 126.11 24.238C125.69 24.814 125.402 25.468 125.246 26.2ZM107.574 37H113.244L119.796 18.982H115.116L110.418 31.942L105.702 18.982H101.022L107.574 37ZM93.9453 19H98.3373V37H93.9453V19ZM96.1773 16.678C95.5293 16.678 94.9833 16.468 94.5393 16.048C94.0953 15.616 93.8733 15.076 93.8733 14.428C93.8733 13.792 94.0953 13.258 94.5393 12.826C94.9833 12.394 95.5233 12.178 96.1593 12.178C96.7953 12.178 97.3293 12.394 97.7613 12.826C98.2053 13.258 98.4273 13.792 98.4273 14.428C98.4273 15.076 98.2113 15.616 97.7793 16.048C97.3473 16.468 96.8133 16.678 96.1773 16.678ZM73.7052 37.468C72.0492 37.468 70.5372 37.042 69.1692 36.19C67.8132 35.338 66.7272 34.192 65.9112 32.752C65.1072 31.312 64.7052 29.722 64.7052 27.982C64.7052 26.674 64.9392 25.45 65.4072 24.31C65.8752 23.158 66.5172 22.15 67.3332 21.286C68.1612 20.41 69.1212 19.726 70.2132 19.234C71.3052 18.742 72.4692 18.496 73.7052 18.496C75.1092 18.496 76.3932 18.796 77.5572 19.396C78.7332 19.984 79.7292 20.794 80.5452 21.826C81.3612 22.858 81.9552 24.034 82.3272 25.354C82.6992 26.674 82.7832 28.054 82.5792 29.494H69.4212C69.5892 30.166 69.8652 30.772 70.2492 31.312C70.6332 31.84 71.1192 32.266 71.7072 32.59C72.2952 32.902 72.9612 33.064 73.7052 33.076C74.4732 33.088 75.1692 32.908 75.7932 32.536C76.4292 32.152 76.9572 31.636 77.3772 30.988L81.8592 32.032C81.1272 33.628 80.0352 34.936 78.5832 35.956C77.1312 36.964 75.5052 37.468 73.7052 37.468ZM69.2772 26.2H78.1332C78.0012 25.48 77.7192 24.832 77.2872 24.256C76.8672 23.668 76.3452 23.2 75.7212 22.852C75.0972 22.504 74.4252 22.33 73.7052 22.33C72.9852 22.33 72.3192 22.504 71.7072 22.852C71.0952 23.188 70.5732 23.65 70.1412 24.238C69.7212 24.814 69.4332 25.468 69.2772 26.2ZM42.1602 11.8V37H50.5122C52.2522 37 53.8782 36.676 55.3902 36.028C56.9142 35.368 58.2522 34.462 59.4042 33.31C60.5682 32.146 61.4742 30.808 62.1222 29.296C62.7822 27.772 63.1122 26.14 63.1122 24.4C63.1122 22.66 62.7822 21.034 62.1222 19.522C61.4742 17.998 60.5682 16.66 59.4042 15.508C58.2522 14.344 56.9142 13.438 55.3902 12.79C53.8782 12.13 52.2522 11.8 50.5122 11.8H42.1602ZM50.5122 32.608H46.5522V16.192H50.5122C51.6402 16.192 52.6962 16.408 53.6802 16.84C54.6642 17.26 55.5342 17.848 56.2902 18.604C57.0462 19.36 57.6402 20.23 58.0722 21.214C58.5042 22.198 58.7202 23.26 58.7202 24.4C58.7202 25.54 58.5042 26.608 58.0722 27.604C57.6402 28.588 57.0462 29.458 56.2902 30.214C55.5342 30.958 54.6582 31.546 53.6622 31.978C52.6782 32.398 51.6282 32.608 50.5122 32.608Z" fill="white"/>
<defs>
<linearGradient id="paint0_linear_1_1155" x1="3.75" y1="43.2549" x2="35.5235" y2="11.908" gradientUnits="userSpaceOnUse">
<stop stop-color="#F94800"/>
<stop offset="1" stop-color="#4B50E6"/>
</linearGradient>
</defs>
</svg>
