<svg width="20" height="20" viewBox="0 0 20 20" fill="none" xmlns="http://www.w3.org/2000/svg">
<path d="M10.7476 18.3068C10.3059 18.3084 9.88094 18.1318 9.56927 17.8184L3.03844 11.2893C2.86817 11.1195 2.73677 10.9149 2.65332 10.6894C2.56987 10.464 2.53636 10.2231 2.55511 9.98342L2.97177 4.51176C3.00056 4.11341 3.17221 3.73885 3.45516 3.45697C3.7381 3.1751 4.11332 3.00487 4.51177 2.97759L9.98344 2.56092C10.0268 2.55176 10.0693 2.55176 10.1126 2.55176C10.5543 2.55176 10.9768 2.72676 11.2876 3.04009L17.8193 9.56842C17.9741 9.7232 18.0969 9.90696 18.1807 10.1092C18.2645 10.3115 18.3077 10.5282 18.3077 10.7472C18.3077 10.9661 18.2645 11.1829 18.1807 11.3851C18.0969 11.5874 17.9741 11.7712 17.8193 11.9259L11.9259 17.8184C11.7716 17.9737 11.5879 18.0968 11.3857 18.1806C11.1834 18.2644 10.9665 18.3073 10.7476 18.3068ZM7.21177 5.54509C6.9377 5.54517 6.66787 5.61284 6.42619 5.7421C6.18451 5.87136 5.97844 6.05823 5.82623 6.28616C5.67402 6.51408 5.58037 6.77602 5.55357 7.04879C5.52677 7.32155 5.56765 7.59671 5.67259 7.8499C5.77753 8.10309 5.94329 8.32649 6.15519 8.50032C6.36709 8.67415 6.61858 8.79304 6.8874 8.84646C7.15622 8.89988 7.43407 8.88618 7.69633 8.80658C7.95859 8.72697 8.19717 8.58392 8.39094 8.39009L8.39677 8.38509L8.40261 8.37926L8.39594 8.38509C8.62759 8.1514 8.78489 7.85436 8.848 7.53141C8.91111 7.20846 8.87721 6.87406 8.75057 6.57035C8.62394 6.26664 8.41023 6.00721 8.13639 5.82475C7.86255 5.6423 7.54083 5.54499 7.21177 5.54509Z" fill="white"/>
</svg>
