<svg width="20" height="20" viewBox="0 0 20 20" fill="none" xmlns="http://www.w3.org/2000/svg">
<path fill-rule="evenodd" clip-rule="evenodd" d="M4.99951 10C4.99951 11.3807 3.88022 12.5 2.49951 12.5C1.1188 12.5 -0.000488281 11.3807 -0.000488281 10C-0.000488281 8.61929 1.1188 7.5 2.49951 7.5C3.88022 7.5 4.99951 8.61929 4.99951 10ZM12.4995 10C12.4995 11.3807 11.3802 12.5 9.99951 12.5C8.6188 12.5 7.49951 11.3807 7.49951 10C7.49951 8.61929 8.6188 7.5 9.99951 7.5C11.3802 7.5 12.4995 8.61929 12.4995 10ZM17.4995 12.5C18.8802 12.5 19.9995 11.3807 19.9995 10C19.9995 8.61929 18.8802 7.5 17.4995 7.5C16.1188 7.5 14.9995 8.61929 14.9995 10C14.9995 11.3807 16.1188 12.5 17.4995 12.5Z" fill="white"/>
</svg>
