<svg width="20" height="20" viewBox="0 0 20 20" fill="none" xmlns="http://www.w3.org/2000/svg">
<g clip-path="url(#clip0_9_315)">
<path d="M0.00889133 14.3335C-0.0180618 14.4865 0.016821 14.644 0.105962 14.7713C0.195063 14.8986 0.331157 14.9853 0.484204 15.0122L3.08487 15.4708L1.44663 6.17969L0.00889133 14.3335Z" fill="white"/>
<path d="M3.13246 0.00943568C2.97906 -0.0184159 2.82078 0.0159591 2.69277 0.105022C2.5648 0.194123 2.47758 0.330569 2.45051 0.484162L1.8291 4.00838L13.6523 1.92362L3.13246 0.00943568Z" fill="white"/>
<path d="M19.9912 16.8702L17.5493 3.02135C17.4931 2.70267 17.1893 2.49002 16.8705 2.54607L3.02166 4.98799C2.70299 5.04416 2.49017 5.34807 2.54635 5.66674L4.98826 19.5156C5.01525 19.6687 5.10193 19.8047 5.22923 19.8938C5.32841 19.9633 5.44587 19.9998 5.56533 19.9998C5.59919 19.9998 5.63326 19.9969 5.66704 19.9909L19.5159 17.549C19.6689 17.522 19.805 17.4353 19.8941 17.3081C19.9833 17.1808 20.0182 17.0233 19.9912 16.8702ZM5.66845 9.87607C5.61228 9.5574 5.82509 9.2535 6.14376 9.19732L15.3764 7.56936C15.6953 7.51318 15.999 7.72596 16.0552 8.04463C16.1113 8.3633 15.8985 8.66721 15.5798 8.72338L6.34724 10.3514C6.31282 10.3574 6.27857 10.3604 6.24482 10.3604C5.96579 10.3604 5.71857 10.1604 5.66845 9.87607ZM13.3163 13.8824L7.16122 14.9677C7.12681 14.9737 7.09255 14.9767 7.0588 14.9767C6.77978 14.9767 6.53255 14.7767 6.48243 14.4924C6.42626 14.1737 6.63907 13.8698 6.95775 13.8136L13.1128 12.7283C13.4317 12.6721 13.7354 12.8849 13.7916 13.2036C13.8477 13.5222 13.6349 13.8262 13.3163 13.8824ZM15.9868 11.0315L6.75419 12.6595C6.71978 12.6656 6.68552 12.6685 6.65177 12.6685C6.37275 12.6685 6.12552 12.4685 6.0754 12.1842C6.01923 11.8655 6.23204 11.5616 6.55071 11.5054L15.7833 9.87748C16.1022 9.82131 16.4059 10.0341 16.4621 10.3528C16.5183 10.6715 16.3055 10.9754 15.9868 11.0315Z" fill="white"/>
</g>
<defs>
<clipPath id="clip0_9_315">
<rect width="20" height="20" fill="white"/>
</clipPath>
</defs>
</svg>
