<svg width="20" height="20" viewBox="0 0 20 20" fill="none" xmlns="http://www.w3.org/2000/svg">
<path d="M16.7805 11.9928C16.5496 11.8892 16.2869 11.8815 16.0503 11.9715C15.8137 12.0614 15.6225 12.2417 15.5188 12.4727C15.0506 13.5167 14.2958 14.4065 13.3421 15.0387C12.3884 15.6709 11.275 16.0195 10.131 16.0442C8.98711 16.0689 7.85965 15.7686 6.87959 15.1781C5.89954 14.5876 5.10709 13.7312 4.5943 12.7083L5.13492 12.949C5.3662 13.052 5.62892 13.0589 5.86527 12.9682C6.10163 12.8774 6.29226 12.6965 6.39523 12.4653C6.49821 12.234 6.50509 11.9713 6.41436 11.7349C6.32363 11.4986 6.14273 11.3079 5.91144 11.205L3.39914 10.0864C3.28462 10.0354 3.16118 10.0075 3.03586 10.0042C2.91055 10.001 2.78582 10.0224 2.66879 10.0673C2.55175 10.1122 2.44472 10.1798 2.35379 10.2661C2.26286 10.3523 2.18981 10.4557 2.13883 10.5702L1.02027 13.0824C0.917298 13.3137 0.910419 13.5764 1.00115 13.8128C1.09188 14.0492 1.27278 14.2398 1.50406 14.3428C1.73534 14.4457 1.99806 14.4526 2.23441 14.3619C2.47077 14.2712 2.6614 14.0903 2.76437 13.859L2.89195 13.5724C3.5543 14.8898 4.56971 15.9972 5.82485 16.7711C7.07999 17.5449 8.52548 17.9547 10 17.9548C10.0461 17.9548 10.0925 17.9544 10.1387 17.9536C11.6495 17.9275 13.1215 17.4717 14.3827 16.6395C15.6439 15.8074 16.6421 14.6333 17.2604 13.2547C17.3641 13.0237 17.3718 12.761 17.2818 12.5244C17.1918 12.2877 17.0115 12.0965 16.7805 11.9928Z" fill="white"/>
<path d="M18.4958 5.65724C18.2645 5.55428 18.0018 5.5474 17.7654 5.63813C17.5291 5.72886 17.3384 5.90976 17.2354 6.14103L17.1079 6.42756C16.4348 5.08867 15.3972 3.9671 14.1147 3.19197C12.8322 2.41684 11.3568 2.01966 9.85848 2.04617C8.36015 2.07267 6.89977 2.52178 5.64547 3.3418C4.39117 4.16181 3.39394 5.31937 2.76861 6.68123C2.71608 6.79515 2.68653 6.9183 2.68164 7.04365C2.67674 7.169 2.6966 7.29408 2.74008 7.41175C2.78355 7.52941 2.8498 7.63736 2.93502 7.72941C3.02024 7.82146 3.12277 7.89581 3.23675 7.94821C3.35072 8.0006 3.47391 8.03002 3.59926 8.03478C3.72461 8.03954 3.84968 8.01955 3.9673 7.97594C4.08492 7.93234 4.19279 7.86598 4.28475 7.78065C4.3767 7.69533 4.45094 7.59272 4.50322 7.47869C4.97873 6.44299 5.73722 5.56272 6.69126 4.93934C7.6453 4.31596 8.75607 3.97484 9.89555 3.9553C11.035 3.93575 12.1568 4.23857 13.1317 4.82886C14.1066 5.41914 14.8948 6.27287 15.4056 7.29166L14.8649 7.05095C14.6339 6.94955 14.3721 6.94373 14.1368 7.03477C13.9015 7.12581 13.7118 7.30631 13.6092 7.5368C13.5066 7.7673 13.4994 8.02905 13.5892 8.26483C13.679 8.50062 13.8585 8.69126 14.0884 8.7951L16.5934 9.91025L16.598 9.91228C16.7126 9.96372 16.8361 9.99203 16.9617 9.99561C17.0872 9.99919 17.2122 9.97796 17.3295 9.93314C17.4469 9.88831 17.5542 9.82078 17.6454 9.7344C17.7365 9.64803 17.8097 9.54451 17.8608 9.42978L18.9794 6.91756C19.0824 6.68629 19.0893 6.42359 18.9986 6.18724C18.9079 5.95089 18.727 5.76024 18.4958 5.65724Z" fill="white"/>
</svg>
