<svg width="20" height="20" viewBox="0 0 20 20" fill="none" xmlns="http://www.w3.org/2000/svg">
<path d="M13.8896 13.1591L15.2455 11.0111C18.2707 6.21866 18.0708 2.04424 17.8547 0.508181C17.832 0.341621 17.7367 0.194725 17.5959 0.104316C17.4542 0.0141074 17.2809 -0.00924969 17.1199 0.0397612C15.6274 0.494243 11.7314 2.0846 8.70342 6.88139L7.34712 9.02998L6.7817 9.04676C5.69139 9.08 4.6881 9.653 4.10545 10.576L2.48703 13.1398C2.39118 13.2917 2.38636 13.485 2.47455 13.6419C2.56362 13.7986 2.7315 13.8931 2.91135 13.8879L4.74184 13.8432C5.25559 13.8311 5.7615 13.9701 6.19634 14.2446L7.14383 14.8427L6.35953 16.0851C6.21524 16.3137 6.28347 16.6156 6.5115 16.7595L7.27015 17.2384C7.49818 17.3823 7.80002 17.3141 7.94431 17.0855L8.72861 15.8431L9.67556 16.4408C10.1104 16.7153 10.4547 17.1115 10.6643 17.5825L11.4105 19.253C11.4832 19.4176 11.6407 19.5285 11.8205 19.5415C12.0001 19.5536 12.1725 19.4661 12.2684 19.3143L13.8868 16.7505C14.4687 15.8285 14.5539 14.676 14.1162 13.6767L13.8896 13.1591ZM12.7432 7.72899C11.9563 7.23223 11.7204 6.19053 12.2171 5.40359C12.7142 4.61609 13.7558 4.38158 14.5427 4.87834C15.3291 5.37476 15.5654 6.4159 15.0683 7.2034C14.5715 7.99034 13.5296 8.2254 12.7432 7.72899Z" fill="white"/>
</svg>
