<svg width="20" height="20" viewBox="0 0 20 20" fill="none" xmlns="http://www.w3.org/2000/svg">
<g clip-path="url(#clip0_9_307)">
<path d="M17.1832 8.22376L16.6999 7.74036C16.4666 7.50703 16.3332 7.19032 16.3332 6.85698V6.17359C16.3332 4.79026 15.2083 3.66525 13.8249 3.66525H13.1416C12.8083 3.66525 12.4916 3.5403 12.2583 3.29863L11.7749 2.81523C10.7999 1.84023 9.20825 1.84023 8.22492 2.81523L7.74157 3.29863C7.50823 3.5403 7.19157 3.66525 6.85824 3.66525H6.1749C4.79156 3.66525 3.66661 4.79026 3.66661 6.17359V6.85698C3.66661 7.19032 3.5416 7.50703 3.29994 7.74036L2.81659 8.22376C2.34159 8.69876 2.08325 9.332 2.08325 9.99866C2.08325 10.6653 2.34159 11.2986 2.81659 11.7736L3.29994 12.257C3.5416 12.4903 3.66661 12.807 3.66661 13.1403V13.8237C3.66661 15.2071 4.79156 16.3321 6.1749 16.3321H6.85824C7.19157 16.3321 7.50823 16.457 7.74157 16.6987L8.22492 17.1821C8.71658 17.6738 9.35825 17.9153 9.99992 17.9153C10.6416 17.9153 11.2833 17.6738 11.7749 17.1821L12.2583 16.6987C12.4916 16.457 12.8083 16.3321 13.1416 16.3321H13.8249C15.2083 16.3321 16.3332 15.2071 16.3332 13.8237V13.1403C16.3332 12.807 16.4666 12.4903 16.6999 12.257L17.1832 11.7736C17.6582 11.2986 17.9166 10.6653 17.9166 9.99866C17.9166 9.332 17.6582 8.69876 17.1832 8.22376ZM7.91659 6.87366C8.49159 6.87366 8.95825 7.34033 8.95825 7.91533C8.95825 8.49033 8.49159 8.957 7.91659 8.957C7.34159 8.957 6.87492 8.49033 6.87492 7.91533C6.87492 7.34033 7.34159 6.87366 7.91659 6.87366ZM12.0833 13.1237C11.5083 13.1237 11.0416 12.657 11.0416 12.082C11.0416 11.507 11.5083 11.0403 12.0833 11.0403C12.6583 11.0403 13.1249 11.507 13.1249 12.082C13.1249 12.657 12.6583 13.1237 12.0833 13.1237ZM13.0916 8.0903L8.0916 13.0903C7.92494 13.2486 7.71659 13.332 7.49992 13.332C7.29159 13.332 7.0749 13.2486 6.90823 13.0903C6.58323 12.7653 6.58323 12.232 6.90823 11.907L11.9082 6.90703C12.2416 6.58203 12.7666 6.58203 13.0916 6.90703C13.4166 7.23203 13.4166 7.7653 13.0916 8.0903Z" fill="white"/>
</g>
<defs>
<clipPath id="clip0_9_307">
<rect width="20" height="20" fill="white"/>
</clipPath>
</defs>
</svg>
