<svg width="42" height="37" viewBox="0 0 42 37" fill="none" xmlns="http://www.w3.org/2000/svg">
<path fill-rule="evenodd" clip-rule="evenodd" d="M12.2186 34.0003L17.5537 35.4158V33.5648L17.9892 33.1293H21.0377V35.3068V36.8311H17.7714L13.7429 35.0891L12.2186 34.0003Z" fill="#CDBDB2"/>
<path fill-rule="evenodd" clip-rule="evenodd" d="M29.6424 34.0003L24.4163 35.4158V33.5648L23.9808 33.1293H20.9323V35.3068V36.8311H24.1986L28.2269 35.0891L29.6424 34.0003Z" fill="#CDBDB2"/>
<path fill-rule="evenodd" clip-rule="evenodd" d="M17.9975 29.9707L17.562 33.5635L18.1062 33.128H23.7678L24.4211 33.5635L23.9856 29.9707L23.1145 29.4262L18.7595 29.5352L17.9975 29.9707Z" fill="#393939"/>
<path fill-rule="evenodd" clip-rule="evenodd" d="M15.0528 5.69013L17.6658 11.7872L18.8636 29.5342H23.1097L24.4162 11.7872L26.8115 5.69013H15.0528Z" fill="#F89C35"/>
<path fill-rule="evenodd" clip-rule="evenodd" d="M3.62368 19.0845L0.575134 27.9034L8.19649 27.4679H13.0958V23.6573L12.8781 15.8182L11.7893 16.6892L3.62368 19.0845Z" fill="#F89D35"/>
<path fill-rule="evenodd" clip-rule="evenodd" d="M9.39386 20.0632L18.3217 20.2809L17.3419 24.8537L13.0957 23.765L9.39386 20.0632Z" fill="#D87C30"/>
<path fill-rule="evenodd" clip-rule="evenodd" d="M9.39386 20.1713L13.0957 23.6553V27.1394L9.39386 20.1713Z" fill="#EA8D3A"/>
<path fill-rule="evenodd" clip-rule="evenodd" d="M13.0925 23.7635L17.4475 24.8522L18.863 29.534L17.883 30.0783L13.0925 27.2475V23.7635Z" fill="#F89D35"/>
<path fill-rule="evenodd" clip-rule="evenodd" d="M13.0896 27.2476L12.2186 33.9979L17.9892 29.9696L13.0896 27.2476Z" fill="#EB8F35"/>
<path fill-rule="evenodd" clip-rule="evenodd" d="M18.3164 20.278L18.8608 29.5326L17.2276 24.7964L18.3164 20.278Z" fill="#EA8E3A"/>
<path fill-rule="evenodd" clip-rule="evenodd" d="M8.08423 27.3566L13.0925 27.2476L12.2215 33.9979L8.08423 27.3566Z" fill="#D87C30"/>
<path fill-rule="evenodd" clip-rule="evenodd" d="M2.97042 36.9396L12.2248 33.9998L8.08751 27.3585L0.575134 27.9028L2.97042 36.9396Z" fill="#EB8F35"/>
<path fill-rule="evenodd" clip-rule="evenodd" d="M17.6685 11.788L12.9869 15.7076L9.39386 20.0626L18.3217 20.3894L17.6685 11.788Z" fill="#E8821E"/>
<path fill-rule="evenodd" clip-rule="evenodd" d="M12.2186 33.9978L17.9892 29.9695L17.5537 33.4535V35.4133L13.6341 34.6511L12.2186 33.9978Z" fill="#DFCEC3"/>
<path fill-rule="evenodd" clip-rule="evenodd" d="M29.6424 33.9978L23.9808 29.9695L24.4163 33.4535V35.4133L28.3359 34.6511L29.6424 33.9978Z" fill="#DFCEC3"/>
<path fill-rule="evenodd" clip-rule="evenodd" d="M15.9276 22.2376L17.1254 24.7419L12.8791 23.6531L15.9276 22.2376Z" fill="#393939"/>
<path fill-rule="evenodd" clip-rule="evenodd" d="M2.86151 0.573438L17.6687 11.7876L15.1646 5.69053L2.86151 0.573438Z" fill="#E88F35"/>
<path fill-rule="evenodd" clip-rule="evenodd" d="M2.86023 0.573438L0.900452 6.56164L1.98922 13.0942L1.22708 13.5297L2.31584 14.5096L1.44483 15.2718L2.64247 16.3605L1.88034 17.0138L3.62236 19.1913L11.7881 16.6871C15.7802 13.4934 17.74 11.8603 17.6674 11.7877C17.5948 11.7151 12.6591 7.97703 2.86023 0.573438Z" fill="#8E5A30"/>
<path fill-rule="evenodd" clip-rule="evenodd" d="M38.246 19.0845L41.2945 27.9034L33.6731 27.4679H28.7738V23.6573L28.9916 15.8182L30.0803 16.6892L38.246 19.0845Z" fill="#F89D35"/>
<path fill-rule="evenodd" clip-rule="evenodd" d="M32.4758 20.0632L23.5479 20.2809L24.5277 24.8537L28.774 23.765L32.4758 20.0632Z" fill="#D87C30"/>
<path fill-rule="evenodd" clip-rule="evenodd" d="M32.4758 20.1713L28.774 23.6553V27.1394L32.4758 20.1713Z" fill="#EA8D3A"/>
<path fill-rule="evenodd" clip-rule="evenodd" d="M28.7782 23.7621L24.4232 24.8509L23.0077 29.5327L23.9876 30.077L28.7782 27.2462V23.7621Z" fill="#F89D35"/>
<path fill-rule="evenodd" clip-rule="evenodd" d="M28.7703 27.2476L29.6413 33.998L23.9797 30.0784L28.7703 27.2476Z" fill="#EB8F35"/>
<path fill-rule="evenodd" clip-rule="evenodd" d="M23.5443 20.2794L22.9998 29.534L24.6331 24.7978L23.5443 20.2794Z" fill="#EA8E3A"/>
<path fill-rule="evenodd" clip-rule="evenodd" d="M33.782 27.3566L28.7737 27.2476L29.6447 33.998L33.782 27.3566Z" fill="#D87C30"/>
<path fill-rule="evenodd" clip-rule="evenodd" d="M38.8992 36.9396L29.6448 33.9998L33.7821 27.3585L41.2945 27.9028L38.8992 36.9396Z" fill="#EB8F35"/>
<path fill-rule="evenodd" clip-rule="evenodd" d="M24.2012 11.788L28.8827 15.7076L32.4758 20.0626L23.5479 20.3894L24.2012 11.788Z" fill="#E8821E"/>
<path fill-rule="evenodd" clip-rule="evenodd" d="M25.9427 22.2376L24.7449 24.7419L28.9912 23.6531L25.9427 22.2376Z" fill="#393939"/>
<path fill-rule="evenodd" clip-rule="evenodd" d="M39.0085 0.573438L24.2013 11.7876L26.7053 5.69053L39.0085 0.573438Z" fill="#E88F35"/>
<path fill-rule="evenodd" clip-rule="evenodd" d="M39.0087 0.573438L40.9685 6.56164L39.8797 13.0942L40.6419 13.5297L39.5531 14.5096L40.4241 15.2718L39.2265 16.3605L39.9886 17.0138L38.2466 19.1913L30.0809 16.6872C26.0887 13.4934 24.129 11.8603 24.2015 11.7877C24.2741 11.7151 29.2099 7.97704 39.0087 0.573438Z" fill="#8E5A30"/>
</svg>
