<svg width="20" height="20" viewBox="0 0 20 20" fill="none" xmlns="http://www.w3.org/2000/svg">
<mask id="mask0_9_324" style="mask-type:luminance" maskUnits="userSpaceOnUse" x="1" y="1" width="18" height="17">
<path fill-rule="evenodd" clip-rule="evenodd" d="M1.66675 1.66699H17.686V17.3325H1.66675V1.66699Z" fill="white" stroke="white"/>
</mask>
<g mask="url(#mask0_9_324)">
<path fill-rule="evenodd" clip-rule="evenodd" d="M9.67653 2.87305C5.94002 2.87305 2.90015 5.84497 2.90015 9.49895C2.90015 13.1529 5.94002 16.1257 9.67653 16.1257C13.4122 16.1257 16.4521 13.1529 16.4521 9.49895C16.4521 5.84497 13.4122 2.87305 9.67653 2.87305ZM9.6766 17.3325C5.2599 17.3325 1.6665 13.8185 1.6665 9.49936C1.6665 5.18022 5.2599 1.66699 9.6766 1.66699C14.0933 1.66699 17.6859 5.18022 17.6859 9.49936C17.6859 13.8185 14.0933 17.3325 9.6766 17.3325Z" fill="white"/>
<path d="M9.67653 2.37305C5.67454 2.37305 2.40015 5.55828 2.40015 9.49895H3.40015C3.40015 6.13166 6.2055 3.37305 9.67653 3.37305V2.37305ZM2.40015 9.49895C2.40015 13.4395 5.67446 16.6257 9.67653 16.6257V15.6257C6.20558 15.6257 3.40015 12.8663 3.40015 9.49895H2.40015ZM9.67653 16.6257C13.6778 16.6257 16.9521 13.4395 16.9521 9.49895H15.9521C15.9521 12.8664 13.1466 15.6257 9.67653 15.6257V16.6257ZM16.9521 9.49895C16.9521 5.55832 13.6777 2.37305 9.67653 2.37305V3.37305C13.1467 3.37305 15.9521 6.13162 15.9521 9.49895H16.9521ZM9.6766 16.8325C5.52546 16.8325 2.1665 13.5319 2.1665 9.49936H1.1665C1.1665 14.1051 4.99435 17.8325 9.6766 17.8325V16.8325ZM2.1665 9.49936C2.1665 5.46689 5.52539 2.16699 9.6766 2.16699V1.16699C4.99442 1.16699 1.1665 4.89354 1.1665 9.49936H2.1665ZM9.6766 2.16699C13.8277 2.16699 17.1859 5.46683 17.1859 9.49936H18.1859C18.1859 4.89361 14.3589 1.16699 9.6766 1.16699V2.16699ZM17.1859 9.49936C17.1859 13.532 13.8277 16.8325 9.6766 16.8325V17.8325C14.3589 17.8325 18.1859 14.105 18.1859 9.49936H17.1859Z" fill="white"/>
</g>
<mask id="mask1_9_324" style="mask-type:luminance" maskUnits="userSpaceOnUse" x="13" y="13" width="6" height="6">
<path fill-rule="evenodd" clip-rule="evenodd" d="M14.2012 14.2998H18.3333V18.3332H14.2012V14.2998Z" fill="white" stroke="white"/>
</mask>
<g mask="url(#mask1_9_324)">
<path fill-rule="evenodd" clip-rule="evenodd" d="M17.7166 18.3332C17.5596 18.3332 17.4016 18.2745 17.2807 18.1571L14.3823 15.3307C14.1413 15.0951 14.1405 14.713 14.3815 14.4774C14.6217 14.2401 15.0123 14.2417 15.2541 14.4757L18.1526 17.3029C18.3935 17.5386 18.3944 17.9198 18.1534 18.1555C18.0333 18.2745 17.8746 18.3332 17.7166 18.3332Z" fill="white"/>
<path d="M17.7166 18.3332C17.5595 18.3332 17.4016 18.2745 17.2807 18.1571L14.3823 15.3307C14.1413 15.0951 14.1405 14.713 14.3815 14.4774C14.6217 14.2401 15.0123 14.2417 15.2541 14.4757L18.1526 17.3029C18.3935 17.5386 18.3944 17.9198 18.1534 18.1555C18.0333 18.2745 17.8746 18.3332 17.7166 18.3332" stroke="white"/>
</g>
</svg>
