<svg width="12" height="12" viewBox="0 0 12 12" fill="none" xmlns="http://www.w3.org/2000/svg">
<path fill-rule="evenodd" clip-rule="evenodd" d="M1.58284 10.9136C1.51029 10.984 1.41554 11.0193 1.32129 11.0193C1.22654 11.0193 1.1313 10.984 1.05925 10.9126C0.914656 10.7712 0.915149 10.5425 1.05974 10.4011L5.48085 6.00016L1.05977 1.59951C0.915178 1.45811 0.914684 1.22889 1.05928 1.08749C1.20337 0.945125 1.43778 0.94609 1.58286 1.08652L5.99996 5.48343L10.417 1.08652C10.5621 0.94609 10.7965 0.945125 10.9406 1.08749C11.0852 1.22889 11.0847 1.45811 10.9401 1.59951L6.51906 6.00016L10.9402 10.4011C11.0848 10.5425 11.0853 10.7712 10.9407 10.9126C10.8686 10.984 10.7734 11.0193 10.6786 11.0193C10.5844 11.0193 10.4896 10.984 10.4171 10.9136L5.99996 6.51687L1.58284 10.9136Z" fill="#8A8AA0"/>
<path d="M1.58284 10.9136L1.93122 11.2723L1.93557 11.268L1.58284 10.9136ZM1.05925 10.9126L1.41126 10.5575L1.40883 10.5551L1.05925 10.9126ZM1.05974 10.4011L1.40934 10.7586L1.41248 10.7554L1.05974 10.4011ZM5.48085 6.00016L5.83359 6.35453L6.18959 6.00016L5.83358 5.64579L5.48085 6.00016ZM1.05977 1.59951L1.41252 1.24513L1.40935 1.24203L1.05977 1.59951ZM1.05928 1.08749L1.40886 1.44497L1.41068 1.44318L1.05928 1.08749ZM1.58286 1.08652L1.93564 0.732126L1.93061 0.727256L1.58286 1.08652ZM5.99996 5.48343L5.64721 5.83779L5.99996 6.18892L6.3527 5.83779L5.99996 5.48343ZM10.417 1.08652L10.0693 0.727222L10.0643 0.732161L10.417 1.08652ZM10.9406 1.08749L10.5892 1.44318L10.5911 1.44497L10.9406 1.08749ZM10.9401 1.59951L10.5905 1.24202L10.5874 1.24514L10.9401 1.59951ZM6.51906 6.00016L6.16633 5.64579L5.81032 6.00016L6.16632 6.35453L6.51906 6.00016ZM10.9402 10.4011L10.5874 10.7555L10.5906 10.7586L10.9402 10.4011ZM10.9407 10.9126L10.5911 10.5551L10.5887 10.5575L10.9407 10.9126ZM10.4171 10.9136L10.0643 11.268L10.0687 11.2723L10.4171 10.9136ZM5.99996 6.51687L6.35269 6.1625L5.99996 5.8114L5.64722 6.1625L5.99996 6.51687ZM1.32129 11.5193C1.53924 11.5193 1.76085 11.4377 1.9312 11.2723L1.23447 10.5549C1.25973 10.5304 1.29185 10.5193 1.32129 10.5193V11.5193ZM0.70724 11.2677C0.879235 11.4382 1.10384 11.5193 1.32129 11.5193V10.5193C1.34924 10.5193 1.38336 10.5299 1.41125 10.5575L0.70724 11.2677ZM0.710157 10.0436C0.365919 10.3802 0.363609 10.9317 0.709664 11.2701L1.40883 10.5551C1.4657 10.6108 1.46438 10.7047 1.40932 10.7586L0.710157 10.0436ZM5.12811 5.6458L0.706997 10.0467L1.41248 10.7554L5.83359 6.35453L5.12811 5.6458ZM5.83358 5.64579L1.4125 1.24514L0.707035 1.95388L5.12812 6.35454L5.83358 5.64579ZM1.40935 1.24203C1.46441 1.29587 1.46573 1.38935 1.40886 1.44497L0.709693 0.730008C0.363638 1.06842 0.365947 1.62036 0.710186 1.95699L1.40935 1.24203ZM1.41068 1.44318C1.35805 1.49517 1.28188 1.49106 1.23512 1.44579L1.93061 0.727256C1.59367 0.401125 1.0487 0.395076 0.70787 0.7318L1.41068 1.44318ZM1.23012 1.44088L5.64721 5.83779L6.3527 5.12907L1.93561 0.732161L1.23012 1.44088ZM10.0643 0.732161L5.64721 5.12907L6.3527 5.83779L10.7698 1.44088L10.0643 0.732161ZM11.292 0.7318C10.9512 0.395075 10.4062 0.401124 10.0693 0.727257L10.7648 1.44579C10.718 1.49106 10.6419 1.49517 10.5892 1.44318L11.292 0.7318ZM11.2897 1.95699C11.634 1.62035 11.6363 1.06842 11.2902 0.730009L10.5911 1.44497C10.5342 1.38935 10.5355 1.29587 10.5906 1.24203L11.2897 1.95699ZM6.87179 6.35454L11.2929 1.95388L10.5874 1.24514L6.16633 5.64579L6.87179 6.35454ZM6.16632 6.35453L10.5874 10.7554L11.2929 10.0467L6.8718 5.6458L6.16632 6.35453ZM10.5906 10.7586C10.5355 10.7047 10.5342 10.6108 10.5911 10.5551L11.2902 11.2701C11.6363 10.9317 11.634 10.3802 11.2898 10.0436L10.5906 10.7586ZM10.5887 10.5575C10.6166 10.5299 10.6507 10.5193 10.6786 10.5193V11.5193C10.8961 11.5193 11.1207 11.4382 11.2927 11.2677L10.5887 10.5575ZM10.6786 10.5193C10.7081 10.5193 10.7402 10.5304 10.7654 10.5549L10.0687 11.2723C10.2391 11.4377 10.4607 11.5193 10.6786 11.5193V10.5193ZM10.7698 10.5592L6.35269 6.1625L5.64722 6.87124L10.0643 11.268L10.7698 10.5592ZM1.93557 11.268L6.35269 6.87124L5.64722 6.1625L1.2301 10.5592L1.93557 11.268Z" fill="#8A8AA0"/>
</svg>
