<svg width="16" height="16" viewBox="0 0 16 16" fill="none" xmlns="http://www.w3.org/2000/svg">
<path d="M15.3247 0.675199C14.7479 0.0984059 13.9315 -0.127994 13.1398 0.0705603L2.3809 2.76004C0.946706 3.11858 -0.00996753 4.35261 0.00069864 5.83111C0.0113648 7.3096 0.98445 8.52957 2.42356 8.86842L6.23548 9.76522L7.13228 13.5771C7.47113 15.0162 8.69115 15.9893 10.1696 16C10.1778 16 10.1852 16 10.1934 16C11.6613 16 12.8838 15.0458 13.2407 13.6198L15.9302 2.86099C16.1279 2.06842 15.9015 1.25199 15.3247 0.675199ZM14.7356 2.56063L12.0461 13.3195C11.7762 14.396 10.8679 14.7562 10.1779 14.7685C9.48455 14.7636 8.58448 14.3747 8.33014 13.2941L7.42433 9.44602L10.8966 5.97383C11.137 5.73343 11.137 5.34368 10.8966 5.10328C10.6562 4.86288 10.2665 4.86288 10.0261 5.10328L6.55383 8.57557L2.7058 7.66976C1.62524 7.41542 1.23633 6.51529 1.23141 5.82199C1.22649 5.12787 1.60308 4.22291 2.68036 3.95379L13.4384 1.26431C13.5262 1.24216 13.6148 1.23146 13.7018 1.23146C13.9807 1.23146 14.2499 1.34147 14.4542 1.54495C14.7225 1.81325 14.8275 2.19306 14.7356 2.56063Z" fill="#8A8AA0"/>
</svg>
