<svg width="20" height="20" viewBox="0 0 20 20" fill="none" xmlns="http://www.w3.org/2000/svg">
<path d="M3.26286 1.82429C3.53306 1.62954 3.89326 1.61439 4.17886 1.78575L16.6789 9.28575C16.9299 9.43635 17.0835 9.70761 17.0835 10.0003C17.0835 10.293 16.9299 10.5643 16.6789 10.7149L4.17886 18.2149C3.89326 18.3863 3.53306 18.3711 3.26286 18.1764C2.99266 17.9816 2.86438 17.6447 2.93663 17.3196L4.37794 10.8337L8.75008 10.8337C9.21032 10.8337 9.58341 10.4606 9.58341 10.0003C9.58341 9.54009 9.21032 9.16699 8.75008 9.16699L4.37794 9.16699L2.93663 2.6811C2.86438 2.35597 2.99266 2.01904 3.26286 1.82429Z" fill="white"/>
</svg>
