<svg width="20" height="20" viewBox="0 0 20 20" fill="none" xmlns="http://www.w3.org/2000/svg">
<path d="M19.1551 0.843999C18.4341 0.123007 17.4136 -0.159993 16.4239 0.0882004L2.97536 3.45005C1.18262 3.89823 -0.0132223 5.44077 0.00011036 7.28888C0.0134431 9.137 1.2298 10.662 3.02869 11.0855L7.79359 12.2065L8.91458 16.9714C9.33815 18.7703 10.8632 19.9867 12.7113 20C12.7215 20 12.7308 20 12.741 20C14.5758 20 16.104 18.8072 16.5501 17.0248L19.912 3.57624C20.1591 2.58552 19.8761 1.56499 19.1551 0.843999ZM18.4187 3.20078L15.0569 16.6494C14.7195 17.995 13.5841 18.4452 12.7216 18.4606C11.8549 18.4545 10.7298 17.9683 10.4119 16.6176L9.27965 11.8075L13.62 7.46729C13.9205 7.16679 13.9205 6.6796 13.62 6.3791C13.3195 6.0786 12.8323 6.0786 12.5318 6.3791L8.19152 10.7195L3.38149 9.5872C2.03078 9.26927 1.54465 8.14412 1.5385 7.27749C1.53235 6.40984 2.00308 5.27863 3.34969 4.94224L16.7973 1.58039C16.907 1.5527 17.0177 1.53933 17.1265 1.53933C17.4752 1.53933 17.8116 1.67684 18.067 1.93119C18.4024 2.26656 18.5336 2.74132 18.4187 3.20078Z" fill="white"/>
</svg>
