<svg width="20" height="20" viewBox="0 0 20 20" fill="none" xmlns="http://www.w3.org/2000/svg">
<g clip-path="url(#clip0_9_318)">
<path d="M14.932 11.933C14.7162 12.1422 14.617 12.4447 14.6662 12.7413L15.407 16.8413C15.4695 17.1888 15.3228 17.5405 15.032 17.7413C14.747 17.9497 14.3678 17.9747 14.057 17.808L10.3662 15.883C10.2378 15.8147 10.0953 15.778 9.94949 15.7738H9.72366C9.64532 15.7855 9.56866 15.8105 9.49866 15.8488L5.80699 17.783C5.62449 17.8747 5.41782 17.9072 5.21532 17.8747C4.72199 17.7813 4.39282 17.3113 4.47366 16.8155L5.21532 12.7155C5.26449 12.4163 5.16532 12.1122 4.94949 11.8997L1.94032 8.98301C1.68866 8.73884 1.60116 8.37217 1.71616 8.04134C1.82782 7.71134 2.11282 7.47051 2.45699 7.41634L6.59866 6.81551C6.91366 6.78301 7.19032 6.59134 7.33199 6.30801L9.15699 2.56634C9.20032 2.48301 9.25616 2.40634 9.32366 2.34134L9.39866 2.28301C9.43782 2.23967 9.48282 2.20384 9.53282 2.17467L9.62366 2.14134L9.76532 2.08301H10.1162C10.4295 2.11551 10.7053 2.30301 10.8495 2.58301L12.6987 6.30801C12.832 6.58051 13.0912 6.76967 13.3903 6.81551L17.532 7.41634C17.882 7.46634 18.1745 7.70801 18.2903 8.04134C18.3995 8.37551 18.3053 8.74217 18.0487 8.98301L14.932 11.933Z" fill="white"/>
</g>
<defs>
<clipPath id="clip0_9_318">
<rect width="20" height="20" fill="white"/>
</clipPath>
</defs>
</svg>
