<svg width="20" height="20" viewBox="0 0 20 20" fill="none" xmlns="http://www.w3.org/2000/svg">
<path fill-rule="evenodd" clip-rule="evenodd" d="M19.5586 10.0005C19.5586 15.2798 15.2788 19.5596 9.99951 19.5596C4.72018 19.5596 0.44043 15.2798 0.44043 10.0005C0.44043 4.72115 4.72018 0.441406 9.99951 0.441406C15.2788 0.441406 19.5586 4.72115 19.5586 10.0005ZM15.9036 7.47881C16.2473 7.04651 16.1755 6.41743 15.7432 6.07373C15.3108 5.73003 14.6818 5.80185 14.3381 6.23416L9.35895 12.1933L6.15571 9.26286C5.74822 8.89008 5.11568 8.91821 4.74289 9.3257C4.37011 9.73319 4.39824 10.3657 4.80573 10.7385L8.79974 14.3924C9.00429 14.5795 9.27734 14.6733 9.55371 14.6514C9.83008 14.6295 10.085 14.4939 10.2575 14.2769L15.9036 7.47881Z" fill="white"/>
</svg>
