<svg width="20" height="20" viewBox="0 0 20 20" fill="none" xmlns="http://www.w3.org/2000/svg">
<g clip-path="url(#clip0_9_321)">
<path fill-rule="evenodd" clip-rule="evenodd" d="M7.99918 9.39009C7.64828 9.39009 7.37083 9.65926 7.37083 9.99967C7.37083 10.3322 7.64828 10.6093 7.99918 10.6093H12.8954V14.3934C12.8954 16.333 11.2715 17.9163 9.26403 17.9163H5.28994C3.29066 17.9163 1.66675 16.3409 1.66675 14.4013V5.60592C1.66675 3.65842 3.29882 2.08301 5.2981 2.08301H9.28035C11.2715 2.08301 12.8954 3.65842 12.8954 5.59801V9.39009H7.99918ZM15.807 7.26067L18.1489 9.56442C18.2693 9.68317 18.3334 9.83359 18.3334 9.99984C18.3334 10.1582 18.2693 10.3165 18.1489 10.4273L15.807 12.7311C15.6867 12.8498 15.5263 12.9132 15.3739 12.9132C15.2135 12.9132 15.0531 12.8498 14.9327 12.7311C14.6921 12.4936 14.6921 12.1057 14.9327 11.8682L16.216 10.6094H12.8956V9.39026H16.216L14.9327 8.13151C14.6921 7.89401 14.6921 7.50609 14.9327 7.26859C15.1734 7.02317 15.5664 7.02317 15.807 7.26067Z" fill="white"/>
</g>
<defs>
<clipPath id="clip0_9_321">
<rect width="20" height="20" fill="white"/>
</clipPath>
</defs>
</svg>
