<svg width="20" height="20" viewBox="0 0 20 20" fill="none" xmlns="http://www.w3.org/2000/svg">
<path d="M16.3702 5.15078C17.0844 4.70396 17.6189 4.0004 17.8737 3.17145C17.2025 3.58816 16.4682 3.88171 15.7025 4.03939C14.6409 2.86424 12.9589 2.57826 11.5963 3.34125C10.2338 4.10424 9.528 5.72731 9.8734 7.30352C7.12426 7.15909 4.56295 5.8002 2.82683 3.56498C1.92079 5.20032 2.3838 7.29083 3.88493 8.34238C3.34211 8.32412 2.81132 8.17032 2.33682 7.89382C2.33682 7.90883 2.33682 7.92383 2.33682 7.93884C2.33714 9.64232 3.48446 11.1097 5.08008 11.4473C4.57657 11.5906 4.04843 11.6117 3.53595 11.509C3.98469 12.9658 5.26775 13.9638 6.73017 13.9935C5.51896 14.9883 4.02315 15.5278 2.48343 15.5251C2.21051 15.5256 1.93781 15.5091 1.66675 15.4759C3.23031 16.5273 5.05009 17.0854 6.90865 17.0834C9.49434 17.102 11.9793 16.0353 13.8076 14.122C15.6359 12.2086 16.6551 9.60822 16.6371 6.90249C16.6371 6.74741 16.6337 6.59317 16.6268 6.43976C17.2964 5.93334 17.8743 5.30598 18.3334 4.58716C17.7096 4.87653 17.0478 5.0665 16.3702 5.15078Z" fill="white"/>
</svg>
