<svg width="20" height="20" viewBox="0 0 20 20" fill="none" xmlns="http://www.w3.org/2000/svg">
<path fill-rule="evenodd" clip-rule="evenodd" d="M14.8075 6.98483H18.3334C18.3334 4.15383 16.6371 2.5 13.763 2.5H6.23712C3.36304 2.5 1.66675 4.15383 1.66675 6.94872V13.0513C1.66675 15.8462 3.36304 17.5 6.23712 17.5H13.763C16.6371 17.5 18.3334 15.8462 18.3334 13.0513V12.7913H14.8075C13.1711 12.7913 11.8445 11.4979 11.8445 9.9025C11.8445 8.30707 13.1711 7.01372 14.8075 7.01372V6.98483ZM14.8075 8.22656H17.7112C18.0549 8.22656 18.3334 8.49817 18.3334 8.83321V10.942C18.3294 11.2754 18.0532 11.5448 17.7112 11.5487H14.8742C14.0458 11.5595 13.3214 11.0065 13.1334 10.2198C13.0393 9.73146 13.1714 9.22752 13.4943 8.84307C13.8172 8.45861 14.2979 8.23295 14.8075 8.22656ZM14.9334 10.4434H15.2075C15.5593 10.4434 15.8445 10.1653 15.8445 9.8223C15.8445 9.47929 15.5593 9.20121 15.2075 9.20121H14.9334C14.7652 9.19928 14.6031 9.26311 14.4834 9.37844C14.3637 9.49377 14.2964 9.65101 14.2964 9.81508C14.2964 10.1593 14.5804 10.4394 14.9334 10.4434ZM5.61482 6.98436H10.3185C10.6703 6.98436 10.9556 6.70629 10.9556 6.36328C10.9556 6.02026 10.6703 5.74219 10.3185 5.74219H5.61482C5.26587 5.74216 4.98184 6.01586 4.97778 6.35605C4.97776 6.70026 5.2618 6.98041 5.61482 6.98436Z" fill="white"/>
</svg>
