<svg width="0" height="0" style="position:absolute"><symbol viewBox="0 0 24 28" fill="none" id="icon-android" xmlns="http://www.w3.org/2000/svg"><path fill-rule="evenodd" clip-rule="evenodd" d="M7.27 1.564a.503.503 0 0 1 .209-.7.552.552 0 0 1 .732.201l1.221 2.106a8.383 8.383 0 0 1 2.986-.543c1.061 0 2.07.194 2.987.543l1.22-2.106a.552.552 0 0 1 .733-.2c.26.137.354.45.21.7l-1.192 2.053c2.146 1.17 3.576 3.262 3.581 5.65H4.88c.004-2.388 1.435-4.48 3.58-5.65L7.27 1.564Zm-2.39 18.72V9.837h15.077v10.447c0 .962-.816 1.742-1.822 1.742h-1.21v3.559c0 .892-.756 1.615-1.69 1.615-.933 0-1.69-.723-1.69-1.615v-3.56h-2.253v3.56c0 .892-.757 1.615-1.69 1.615-.934 0-1.69-.723-1.69-1.615v-3.56h-1.21c-1.006 0-1.822-.779-1.822-1.74ZM8.31 6.03c0-.332.281-.602.629-.602s.63.27.63.602a.616.616 0 0 1-.63.602.616.616 0 0 1-.63-.602Zm6.958 0c0-.332.282-.602.63-.602.348 0 .63.27.63.602a.616.616 0 0 1-.63.602.616.616 0 0 1-.63-.602ZM.9 11.151c0-.892.757-1.615 1.69-1.615.933 0 1.69.723 1.69 1.615v6.73c0 .892-.757 1.615-1.69 1.615-.933 0-1.69-.723-1.69-1.615v-6.73Zm19.72 0c0-.892.757-1.615 1.69-1.615.933 0 1.69.723 1.69 1.615v6.73c0 .892-.757 1.615-1.69 1.615-.933 0-1.69-.723-1.69-1.615v-6.73Z" fill="#fff"/></symbol><symbol viewBox="0 0 20 26" fill="none" id="icon-apple" xmlns="http://www.w3.org/2000/svg"><path d="M19.268 9.326c-.141.114-2.632 1.573-2.632 4.82 0 3.755 3.17 5.083 3.264 5.116-.015.08-.503 1.82-1.67 3.59-1.042 1.559-2.129 3.115-3.783 3.115s-2.08-1-3.988-1C8.598 24.968 7.936 26 6.424 26c-1.513 0-2.569-1.442-3.782-3.213C1.236 20.707.1 17.476.1 14.409.1 9.49 3.174 6.88 6.2 6.88c1.607 0 2.948 1.099 3.957 1.099.96 0 2.459-1.164 4.288-1.164.693 0 3.183.065 4.823 2.51Zm-5.692-4.593c.757-.933 1.292-2.229 1.292-3.524 0-.18-.015-.362-.046-.509-1.231.048-2.695.853-3.578 1.918-.693.82-1.34 2.115-1.34 3.428 0 .198.032.395.046.458.078.016.204.033.33.033 1.105 0 2.494-.769 3.296-1.804Z" fill="#fff"/></symbol><symbol viewBox="0 0 30 30" fill="none" id="icon-b" xmlns="http://www.w3.org/2000/svg"><path d="M2.804 16.178a1.343 1.343 0 0 0 0 2.013l10.954 10.064a1.647 1.647 0 0 0 2.19 0 1.343 1.343 0 0 0 0-2.013L4.996 16.178a1.647 1.647 0 0 0-2.19 0Z" fill="#E41B9F"/><path fill-rule="evenodd" clip-rule="evenodd" d="m.513 8.35 5.6-5.144C9.819-.2 14.052.066 17.364 3.109c.42.387.947 1.063 1.262 1.498.132.169.21.29.316.386.21.194.42.242.867.121 2.76-.7 5.18.073 7.492 2.198 3.234 2.971 3.576 6.957-.525 10.725l-7.86 7.222c-.421.386-.763.362-1.184-.024L.54 9.438C.12 9.05.092 8.738.513 8.35Zm11.489 2.73 1.34-1.232c.684-.628.79-1.497-.026-2.246-.788-.725-1.761-.652-2.445-.024L9.531 8.81c-.42.386-.395.7.026 1.087l1.262 1.159c.42.387.762.41 1.183.024Zm6.414 5.895 3.523-3.237c1.026-.942 1.236-1.812.368-2.609-.841-.773-1.814-.604-2.839.338l-3.523 3.237c-.42.386-.394.7.027 1.087l1.261 1.16c.421.386.763.41 1.183.024Z" fill="#2926CF"/></symbol><symbol viewBox="0 0 20 20" fill="none" id="icon-bag" xmlns="http://www.w3.org/2000/svg"><path fill-rule="evenodd" clip-rule="evenodd" d="M13.876 5.392h.18c2.36 0 4.277 1.875 4.277 4.175v4.6c0 2.3-1.916 4.167-4.277 4.167H5.944c-2.362 0-4.278-1.867-4.278-4.167v-4.6c0-2.3 1.916-4.175 4.278-4.175h.18c.016-1 .419-1.933 1.146-2.633.736-.709 1.677-1.067 2.738-1.092 2.121 0 3.841 1.667 3.867 3.725ZM8.169 3.65a2.502 2.502 0 0 0-.761 1.742h5.184c-.025-1.367-1.172-2.475-2.583-2.475a2.7 2.7 0 0 0-1.84.733Zm5.082 4.95c.36 0 .642-.283.642-.625V7.01a.633.633 0 0 0-.642-.625.638.638 0 0 0-.641.625v.966c0 .342.29.625.641.625Zm-5.937-.625a.633.633 0 0 1-.642.625.638.638 0 0 1-.642-.625V7.01c0-.342.291-.625.642-.625.36 0 .642.283.642.625v.966Z" fill="#fff"/></symbol><symbol viewBox="0 0 20 20" fill="none" id="icon-bids" xmlns="http://www.w3.org/2000/svg"><g clip-path="url(#aeclip0_9_326)"><path d="M14.167 3.75H5.833a3.756 3.756 0 0 0-3.75 3.75h15.834a3.756 3.756 0 0 0-3.75-3.75ZM2.083 9.167V12.5a3.756 3.756 0 0 0 3.75 3.75h8.334a3.756 3.756 0 0 0 3.75-3.75V9.167H2.083Zm6.25 4.166h-2.5A.836.836 0 0 1 5 12.5c0-.458.375-.833.833-.833h2.5c.459 0 .834.375.834.833a.836.836 0 0 1-.834.833Z" fill="#fff"/></g><defs><clipPath id="aeclip0_9_326"><path fill="#fff" d="M0 0h20v20H0z"/></clipPath></defs></symbol><symbol viewBox="0 0 20 20" fill="none" id="icon-blue-flame" xmlns="http://www.w3.org/2000/svg"><path d="M11.65 1.197C7.9 3.36 8.35 9.45 8.35 9.45S6.698 8.9 6.698 6.424C4.729 7.566 3.398 9.76 3.398 12.2a6.602 6.602 0 0 0 13.204 0c0-5.364-4.952-6.465-4.952-11.004Zm-1.07 15.33a2.476 2.476 0 0 1-1.198-4.804c3.203-.798 3.604-2.6 3.604-2.6s1.598 6.407-2.406 7.405Z" fill="#5142FC"/></symbol><symbol viewBox="0 0 20 24" fill="none" id="icon-bookmark" xmlns="http://www.w3.org/2000/svg"><path fill="#fff" fill-opacity=".4" d="M5 8h13v4H5z"/><path fill-rule="evenodd" clip-rule="evenodd" d="M6.383.8h7.199c3.161 0 5.716 1.198 5.751 4.245v17c0 .191-.046.381-.14.55a1.2 1.2 0 0 1-.723.56c-.303.089-.642.044-.922-.113l-7.56-3.628-7.571 3.628a1.28 1.28 0 0 1-.572.146c-.653 0-1.178-.515-1.178-1.142V5.045C.667 1.998 3.233.8 6.383.8Zm-.792 8.534h8.785c.501 0 .91-.393.91-.884a.896.896 0 0 0-.91-.885H5.59a.896.896 0 0 0-.91.885c0 .491.408.884.91.884Z" fill="#fff"/></symbol><symbol viewBox="0 0 30 30" fill="none" id="icon-c" xmlns="http://www.w3.org/2000/svg"><path d="M29.794 15c0 8.17-6.624 14.794-14.794 14.794C6.83 29.794.207 23.17.207 15 .207 6.83 6.83.207 15 .207 23.17.207 29.794 6.83 29.794 15Z" fill="#0052FF"/><path d="M15.003 9.8a5.2 5.2 0 0 0-5.2 5.2 5.2 5.2 0 0 0 5.2 5.2 5.2 5.2 0 0 0 5.123-4.333h5.24c-.442 5.34-4.91 9.535-10.363 9.535-5.742 0-10.401-4.66-10.401-10.402 0-5.743 4.659-10.402 10.401-10.402 5.453 0 9.92 4.196 10.363 9.535h-5.244A5.195 5.195 0 0 0 15.003 9.8Z" fill="#fff"/></symbol><symbol viewBox="0 0 24 24" fill="none" id="icon-category" xmlns="http://www.w3.org/2000/svg"><path d="M7.43.8H3.645C2.077.8.8 2.088.8 3.668v3.818a2.854 2.854 0 0 0 2.845 2.868H7.43a2.847 2.847 0 0 0 2.845-2.868V3.668C10.275 2.088 9.01.8 7.43.8ZM7.43 13.646H3.645A2.855 2.855 0 0 0 .8 16.514v3.819c0 1.579 1.277 2.867 2.845 2.867H7.43c1.58 0 2.845-1.288 2.845-2.867v-3.819a2.848 2.848 0 0 0-2.845-2.868Z" fill="#fff"/><path d="M20.355.8h-3.786c-1.579 0-2.844 1.288-2.844 2.868v3.818a2.847 2.847 0 0 0 2.844 2.868h3.786A2.854 2.854 0 0 0 23.2 7.486V3.668C23.2 2.088 21.923.8 20.355.8Z" fill="#fff" fill-opacity=".4"/><path d="M20.355 13.646h-3.786a2.847 2.847 0 0 0-2.844 2.868v3.819c0 1.579 1.265 2.867 2.844 2.867h3.786c1.568 0 2.845-1.288 2.845-2.867v-3.819a2.855 2.855 0 0 0-2.845-2.868Z" fill="#fff"/></symbol><symbol viewBox="0 0 14 12" fill="none" id="icon-check" xmlns="http://www.w3.org/2000/svg"><path d="M5.44 10.822a.66.66 0 0 1-.938 0L.756 7.057a1.003 1.003 0 0 1 0-1.414l.47-.471a.991.991 0 0 1 1.407 0l2.338 2.35 6.32-6.35a.991.991 0 0 1 1.408 0l.469.471c.389.39.389 1.024 0 1.414L5.44 10.822Z" fill="#fff"/></symbol><symbol viewBox="0 0 14 12" fill="none" id="icon-check-hover" xmlns="http://www.w3.org/2000/svg"><path d="M5.44 10.822a.66.66 0 0 1-.938 0L.756 7.057a1.003 1.003 0 0 1 0-1.414l.47-.471a.991.991 0 0 1 1.407 0l2.338 2.35 6.32-6.35a.991.991 0 0 1 1.408 0l.469.471c.389.39.389 1.024 0 1.414L5.44 10.822Z" fill="#343444"/></symbol><symbol viewBox="0 0 20 20" fill="none" id="icon-clock" xmlns="http://www.w3.org/2000/svg"><path d="M9.992 1.667c-4.6 0-8.325 3.733-8.325 8.333s3.725 8.334 8.325 8.334c4.608 0 8.342-3.734 8.342-8.334S14.6 1.667 9.992 1.667Zm3.342 11.667a.83.83 0 0 1-1.175 0l-2.742-2.742a.833.833 0 0 1-.25-.592V6.667c0-.458.375-.833.833-.833.459 0 .834.375.834.833v2.992l2.5 2.5a.83.83 0 0 1 0 1.175Z" fill="#fff"/></symbol><symbol viewBox="0 0 20 20" fill="none" id="icon-close" xmlns="http://www.w3.org/2000/svg"><path fill-rule="evenodd" clip-rule="evenodd" d="M2.638 18.19a.624.624 0 0 1-.872-.003.593.593 0 0 1 0-.852L9.135 10 1.766 2.666a.594.594 0 0 1 0-.854.627.627 0 0 1 .872-.001L10 9.139l7.362-7.328a.627.627 0 0 1 .873.001.594.594 0 0 1-.001.854L10.865 10l7.369 7.335a.593.593 0 0 1 0 .852.624.624 0 0 1-.873.002L10 10.861 2.638 18.19Z" fill="#fff"/><path d="m2.638 18.19.349.358.004-.004-.353-.355Zm-.872-.003.352-.355-.003-.002-.35.358Zm0-.852.35.357.003-.003-.353-.354ZM9.135 10l.353.354.356-.354-.356-.354-.353.354ZM1.766 2.666l.353-.355-.003-.003-.35.358Zm0-.854.35.358.001-.002-.351-.356Zm.872-.001.353-.355-.005-.005-.348.36ZM10 9.139l-.353.354.353.351.353-.35L10 9.138Zm7.362-7.328-.348-.36-.005.005.353.355Zm.873.001-.352.356.002.002.35-.358Zm-.001.854-.35-.358-.003.003.353.355ZM10.865 10l-.353-.354-.356.354.356.354.353-.354Zm7.369 7.335-.353.354.003.003.35-.357Zm0 .852-.349-.357-.002.002.352.355Zm-.872.002-.353.355.005.004.348-.359ZM10 10.861l.353-.354-.353-.351-.353.35.353.355Zm-7.798 8.004c.281 0 .566-.105.785-.317l-.697-.717a.125.125 0 0 1-.088.034v1Zm-.788-.322c.22.218.508.322.788.322v-1a.118.118 0 0 1-.084-.033l-.704.71Zm.003-1.566a1.093 1.093 0 0 0-.001 1.568l.7-.715a.093.093 0 0 1 0-.138l-.7-.715Zm7.365-7.331L1.414 16.98l.705.708 7.369-7.335-.706-.708Zm.706 0L2.119 2.31l-.705.71 7.368 7.333.706-.708ZM2.116 2.308a.094.094 0 0 1 0-.138l-.7-.715a1.094 1.094 0 0 0 0 1.568l.7-.715Zm.001-.14a.127.127 0 0 1 .173.002l.696-.719a1.127 1.127 0 0 0-1.572.006l.703.711Zm.168-.003 7.362 7.328.706-.708L2.99 1.456l-.706.71Zm14.724-.709L9.647 8.785l.706.708 7.362-7.328-.706-.709Zm1.577 0a1.127 1.127 0 0 0-1.572-.005l.696.719a.127.127 0 0 1 .173-.002l.703-.711Zm-.003 1.567c.44-.43.444-1.135.001-1.568l-.7.715c.04.038.041.098 0 .138l.7.715Zm-7.365 7.331 7.368-7.334-.705-.709-7.369 7.335.706.708Zm-.706 0 7.369 7.335.706-.708-7.369-7.335-.706.708Zm7.372 7.338c.041.04.04.1.001.138l.7.715a1.093 1.093 0 0 0-.002-1.568l-.699.715Zm-.001.14a.119.119 0 0 1-.085.033v1c.28 0 .569-.104.789-.322l-.704-.71Zm-.085.033a.125.125 0 0 1-.088-.034l-.696.717c.218.212.503.317.784.317v-1Zm-.083-.03-7.362-7.328-.706.709 7.362 7.328.706-.71Zm-14.724.709 7.362-7.328-.706-.71-7.362 7.329.706.709Z" fill="#fff"/></symbol><symbol viewBox="0 0 16 16" fill="none" id="icon-dots" xmlns="http://www.w3.org/2000/svg"><path fill-rule="evenodd" clip-rule="evenodd" d="M4 8a2 2 0 1 1-4 0 2 2 0 0 1 4 0Zm6 0a2 2 0 1 1-4 0 2 2 0 0 1 4 0Zm4 2a2 2 0 1 0 0-4 2 2 0 0 0 0 4Z" fill="#fff"/></symbol><symbol viewBox="0 0 11 10" fill="none" id="icon-down" xmlns="http://www.w3.org/2000/svg"><g clip-path="url(#aoclip0_12_598)"><path d="M5.072 7.85a.698.698 0 0 1-.496-.205l-4.3-4.3a.7.7 0 1 1 .991-.99l3.805 3.804 3.804-3.804a.7.7 0 0 1 .99.99l-4.3 4.3a.698.698 0 0 1-.494.205Z" fill="#fff"/></g><defs><clipPath id="aoclip0_12_598"><path fill="#fff" transform="translate(.072)" d="M0 0h10v10H0z"/></clipPath></defs></symbol><symbol viewBox="0 0 20 20" fill="none" id="icon-error" xmlns="http://www.w3.org/2000/svg"><path fill-rule="evenodd" clip-rule="evenodd" d="M10 19.559A9.56 9.56 0 1 0 10 .44a9.56 9.56 0 0 0 0 19.119ZM14.589 5.41a.806.806 0 0 0-1.14 0L10 8.86 6.55 5.41A.806.806 0 1 0 5.41 6.55L8.86 10l-3.45 3.45a.806.806 0 0 0 1.14 1.14L10 11.14l3.45 3.45a.806.806 0 1 0 1.139-1.14L11.139 10l3.45-3.45a.806.806 0 0 0 0-1.14Z" fill="#fff"/></symbol><symbol viewBox="0 0 20 20" fill="none" id="icon-eye" xmlns="http://www.w3.org/2000/svg"><path fill-rule="evenodd" clip-rule="evenodd" d="M10 16.104C6.563 16.103 3.43 13.828 1.57 10 3.43 6.174 6.564 3.9 10 3.898c3.437 0 6.57 2.276 8.43 6.102-1.86 3.828-4.993 6.103-8.43 6.104ZM9.998 17.5h.004c4.137-.003 7.852-2.703 9.937-7.225a.649.649 0 0 0 0-.551c-2.086-4.521-5.8-7.222-9.936-7.224h-.006C5.862 2.503 2.147 5.204.06 9.725a.656.656 0 0 0 0 .55c2.086 4.523 5.8 7.223 9.936 7.226ZM7.588 10c0-1.24 1.082-2.247 2.412-2.247 1.33 0 2.412 1.008 2.412 2.246S11.329 12.245 10 12.245c-1.33 0-2.412-1.007-2.412-2.245Zm-1.5 0c0 2.008 1.754 3.642 3.911 3.642s3.912-1.634 3.912-3.642c0-2.009-1.755-3.644-3.912-3.644s-3.91 1.635-3.91 3.644Z" fill="#fff"/></symbol><symbol viewBox="0 0 16 16" fill="none" id="icon-eye-grey" xmlns="http://www.w3.org/2000/svg"><path fill-rule="evenodd" clip-rule="evenodd" d="M8 12.883c-2.75 0-5.256-1.821-6.744-4.883C2.744 4.94 5.25 3.12 8 3.118 10.75 3.12 13.256 4.94 14.744 8c-1.488 3.062-3.995 4.882-6.744 4.883Zm-.002 1.118h.004c3.31-.003 6.281-2.163 7.95-5.78a.519.519 0 0 0 0-.441c-1.67-3.617-4.64-5.777-7.95-5.78h-.005C4.69 2.004 1.717 4.164.05 7.78a.525.525 0 0 0 0 .44c1.668 3.618 4.64 5.778 7.948 5.78h.001ZM6.071 8c0-.992.865-1.798 1.929-1.798S9.93 7.01 9.93 8c0 .99-.866 1.796-1.93 1.796S6.07 8.991 6.07 8Zm-1.2 0c0 1.606 1.403 2.913 3.128 2.913 1.726 0 3.13-1.307 3.13-2.913 0-1.607-1.404-2.915-3.13-2.915-1.725 0-3.128 1.308-3.128 2.915Z" fill="#555770"/></symbol><symbol viewBox="0 0 20 20" fill="none" id="icon-facebook" xmlns="http://www.w3.org/2000/svg"><path d="M.835 10.053c0 4.125 2.982 7.637 7.03 8.284v-5.86H5.753v-2.424h2.116V8.21a2.97 2.97 0 0 1 .81-2.377 2.93 2.93 0 0 1 2.334-.893c.626.01 1.25.066 1.867.167v2.062h-1.053a1.2 1.2 0 0 0-.991.328 1.217 1.217 0 0 0-.366.983v1.574h2.31l-.37 2.424h-1.94v5.86c4.379-.697 7.45-4.72 6.987-9.156-.462-4.436-4.295-7.732-8.722-7.5C4.307 1.914.836 5.593.835 10.053Z" fill="#fff"/></symbol><symbol viewBox="0 0 56 56" fill="none" id="icon-favicon" xmlns="http://www.w3.org/2000/svg"><path d="M0 18C0 8.059 8.059 0 18 0h20c9.941 0 18 8.059 18 18v20c0 9.941-8.059 18-18 18H18C8.059 56 0 47.941 0 38V18Z" fill="#1C1C28"/><path d="M28 44.361c0-7.963 11.159-10.113 11.159-19.427 0-6.317-4.996-11.438-11.159-11.438s-11.159 5.12-11.159 11.438C16.841 34.227 28 36.39 28 44.36Zm-.98-26.924c2.337 0 4.513.826 5.072 3.124.56 2.299-.492 4.487-2.735 5.06-3.568.912-3.325 4.286-1.357 5.553-10.537-.83-8.428-13.737-.98-13.737Z" fill="url(#atpaint0_linear_1_3936)"/><defs><linearGradient id="atpaint0_linear_1_3936" x1="19.631" y1="43.997" x2="43.268" y2="20.677" gradientUnits="userSpaceOnUse"><stop stop-color="#F94800"/><stop offset="1" stop-color="#4B50E6"/></linearGradient></defs></symbol><symbol viewBox="0 0 20 20" fill="none" id="icon-fire" xmlns="http://www.w3.org/2000/svg"><path d="M11.65 1.197C7.9 3.36 8.35 9.45 8.35 9.45S6.698 8.9 6.698 6.424C4.729 7.566 3.398 9.76 3.398 12.2a6.602 6.602 0 0 0 13.204 0c0-5.364-4.952-6.465-4.952-11.004Zm-1.07 15.33a2.476 2.476 0 0 1-1.198-4.804c3.203-.798 3.604-2.6 3.604-2.6s1.598 6.407-2.406 7.405Z" fill="#fff"/></symbol><symbol viewBox="0 0 20 20" fill="none" id="icon-following" xmlns="http://www.w3.org/2000/svg"><g clip-path="url(#avclip0_9_328)"><path d="M17.917 14.7v.425c0 .617-.209 1.209-.592 1.684-.142.183-.375.275-.617.275h-2.233A3.917 3.917 0 0 0 15 15.125V14.7c0-1.2-.442-2.308-1.192-3.15.059-.016.109-.05.159-.075a1.816 1.816 0 0 1 1.308-.175 3.498 3.498 0 0 1 2.642 3.4ZM12.083 2.917c-.266 0-.525.025-.775.083a4.957 4.957 0 0 1 1.609 3.667c0 1.45-.617 2.758-1.609 3.667a3.4 3.4 0 0 0 .775.083 3.756 3.756 0 0 0 3.75-3.75 3.756 3.756 0 0 0-3.75-3.75Zm-4.166 0a3.756 3.756 0 0 0-3.75 3.75 3.756 3.756 0 0 0 3.75 3.75 3.756 3.756 0 0 0 3.75-3.75 3.756 3.756 0 0 0-3.75-3.75Zm3.191 8.383a1.99 1.99 0 0 0-.441-.05c-.309 0-.609.075-.867.225a3.95 3.95 0 0 1-1.883.475c-.65 0-1.292-.158-1.867-.466a1.873 1.873 0 0 0-.892-.234 1.93 1.93 0 0 0-.383.042A3.48 3.48 0 0 0 2.083 14.7v.425c0 .617.209 1.209.592 1.684.142.183.375.275.617.275h9.25c.241 0 .475-.092.616-.275a2.673 2.673 0 0 0 .592-1.684V14.7a3.498 3.498 0 0 0-2.642-3.4Z" fill="#fff"/></g><defs><clipPath id="avclip0_9_328"><path fill="#fff" d="M0 0h20v20H0z"/></clipPath></defs></symbol><symbol viewBox="0 0 24 24" fill="none" id="icon-g" xmlns="http://www.w3.org/2000/svg"><path fill-rule="evenodd" clip-rule="evenodd" d="M12 .394h11.605v5.81H6.197v17.399H.394V.395H12Zm5.803 17.4h-5.769v-5.777h11.568v5.98c0 1.487-.59 2.913-1.639 3.965a5.596 5.596 0 0 1-3.957 1.643h-.203v-5.81Z" fill="#4B50E6"/></symbol><symbol viewBox="0 0 20 20" fill="none" id="icon-google" xmlns="http://www.w3.org/2000/svg"><path d="M10.174 8.632v2.898h4.116c-.383 1.843-1.986 2.9-4.116 2.9-2.48-.033-4.472-2.008-4.472-4.434 0-2.425 1.992-4.4 4.472-4.434a4.499 4.499 0 0 1 2.826.99l2.233-2.185c-2.561-2.202-6.302-2.485-9.18-.695s-4.2 5.224-3.246 8.427c.954 3.202 3.957 5.403 7.367 5.401 3.837 0 7.326-2.729 7.326-7.504a6.136 6.136 0 0 0-.172-1.365h-7.154Z" fill="#fff"/></symbol><symbol viewBox="0 0 16 16" fill="none" id="icon-heart" xmlns="http://www.w3.org/2000/svg"><g clip-path="url(#azclip0_9_320)"><path d="M14.714 2.647a4.468 4.468 0 0 0-6.31 0L8 3.05l-.404-.404a4.467 4.467 0 0 0-6.31 0C-.42 4.35-.43 7.053 1.26 8.93c1.541 1.713 6.086 5.413 6.28 5.57.13.106.288.157.444.157H8a.682.682 0 0 0 .46-.158c.193-.156 4.739-3.857 6.28-5.57 1.69-1.877 1.679-4.579-.026-6.283ZM13.69 7.986C12.488 9.32 9.185 12.074 8 13.05c-1.186-.977-4.488-3.73-5.69-5.065-1.179-1.31-1.19-3.176-.025-4.34a3.04 3.04 0 0 1 2.156-.892c.78 0 1.561.297 2.156.892l.888.888a.683.683 0 0 0 .379.191.708.708 0 0 0 .65-.19l.889-.89a3.053 3.053 0 0 1 4.312 0c1.164 1.165 1.153 3.03-.025 4.34Z" fill="#fff"/></g><defs><clipPath id="azclip0_9_320"><path fill="#fff" d="M0 0h16v16H0z"/></clipPath></defs></symbol><symbol viewBox="0 0 16 16" fill="none" id="icon-heart-grey" xmlns="http://www.w3.org/2000/svg"><g clip-path="url(#ayclip0_988_2490)"><path d="M14.714 2.647a4.468 4.468 0 0 0-6.31 0L8 3.05l-.404-.404a4.467 4.467 0 0 0-6.31 0C-.42 4.35-.43 7.053 1.26 8.93c1.541 1.713 6.086 5.413 6.28 5.57.13.106.288.157.444.157H8a.682.682 0 0 0 .46-.158c.193-.156 4.739-3.857 6.28-5.57 1.69-1.877 1.679-4.579-.026-6.283ZM13.69 7.986C12.488 9.32 9.185 12.074 8 13.05c-1.186-.977-4.488-3.73-5.69-5.065-1.179-1.31-1.19-3.176-.025-4.34a3.04 3.04 0 0 1 2.156-.892c.78 0 1.561.297 2.156.892l.888.888a.683.683 0 0 0 .379.191.708.708 0 0 0 .65-.19l.889-.89a3.053 3.053 0 0 1 4.312 0c1.164 1.165 1.153 3.03-.025 4.34Z" fill="#555770"/></g><defs><clipPath id="ayclip0_988_2490"><path fill="#fff" d="M0 0h16v16H0z"/></clipPath></defs></symbol><symbol viewBox="0 0 14 14" fill="none" id="icon-input-checked" xmlns="http://www.w3.org/2000/svg"><path fill-rule="evenodd" clip-rule="evenodd" d="M13.691 7A6.691 6.691 0 1 1 .31 7 6.691 6.691 0 0 1 13.69 7Zm-2.558-1.765a.7.7 0 1 0-1.096-.871L6.552 8.535l-2.243-2.05a.7.7 0 0 0-.945 1.032l2.796 2.558a.7.7 0 0 0 1.02-.081l3.953-4.759Z" fill="#8A8AA0"/></symbol><symbol viewBox="0 0 14 14" fill="none" id="icon-input-error" xmlns="http://www.w3.org/2000/svg"><path fill-rule="evenodd" clip-rule="evenodd" d="M7 13.69A6.691 6.691 0 1 0 7 .309a6.691 6.691 0 0 0 0 13.383Zm3.213-9.903a.564.564 0 0 0-.798 0L7 6.202 4.585 3.787a.564.564 0 0 0-.797.798L6.202 7 3.788 9.415a.564.564 0 1 0 .797.797L7 7.797l2.415 2.415a.564.564 0 1 0 .798-.797L7.798 7l2.415-2.415a.564.564 0 0 0 0-.798Z" fill="#F94800"/></symbol><symbol viewBox="0 0 46 29" fill="none" id="icon-la-la-pizza" xmlns="http://www.w3.org/2000/svg"><path d="M9.564 5.918c7.42-7.31 19.452-7.31 26.872 0l.893.88a.926.926 0 0 1 0 1.324l-3.055 3.01a.48.48 0 0 1-.672 0L32.374 9.92c-5.177-5.1-13.57-5.1-18.747 0l-1.317 1.296a.48.48 0 0 1-.671 0l-3.055-3.01a.926.926 0 0 1 0-1.323l.98-.966Zm33.19 6.224 2.72 2.679a.926.926 0 0 1 0 1.324l-12.26 12.077a.96.96 0 0 1-1.344 0l-8.702-8.572a.24.24 0 0 0-.336 0l-8.701 8.572a.96.96 0 0 1-1.344 0L.527 16.144a.926.926 0 0 1 0-1.323l2.719-2.679a.96.96 0 0 1 1.343 0l8.702 8.572a.24.24 0 0 0 .336 0l8.701-8.572a.96.96 0 0 1 1.344 0l8.701 8.572a.24.24 0 0 0 .336 0l8.702-8.571a.96.96 0 0 1 1.343 0Z" fill="#3B99FC"/></symbol><symbol viewBox="0 0 20 20" fill="none" id="icon-landscape" xmlns="http://www.w3.org/2000/svg"><path fill-rule="evenodd" clip-rule="evenodd" d="M1.97 6.162c0-2.545 1.554-4.194 3.96-4.194h8.134c2.414 0 3.968 1.65 3.968 4.194v4.948c-.416-.353-1.674-1.23-1.85-1.335-1.306-.784-2.874-.43-3.891.896-.089.116-1.56 2.263-2.082 2.584a.958.958 0 0 1-.382.133c-.327.028-.641-.14-1.176-.497-.308-.196-.644-.42-1.027-.578-1.591-.665-2.804.434-3.45 1.172-.008.007-1.816 2.212-1.845 2.246a4.979 4.979 0 0 1-.359-1.903V6.162Zm17.363 0c0-3.29-2.117-5.495-5.27-5.495H5.93C2.786.667.667 2.87.667 6.162v7.667c0 1.467.417 2.716 1.155 3.646.009.008.009.018.017.018.734.92 1.783 1.529 3.045 1.746l.035.006c.324.053.659.088 1.01.088h8.135c.169 0 .323-.031.485-.044.19-.015.387-.02.569-.05.24-.042.46-.114.683-.183.097-.03.2-.05.294-.085.227-.086.435-.197.64-.31.076-.042.156-.075.229-.121.202-.127.386-.275.566-.43.06-.052.124-.098.181-.152a4.74 4.74 0 0 0 .479-.544c.046-.06.094-.116.138-.179.143-.203.266-.423.38-.651.032-.067.065-.131.096-.198.106-.24.193-.491.268-.754.02-.071.04-.141.056-.214.066-.272.114-.552.145-.845.003-.035.014-.068.017-.103.007-.08.006-.159.01-.238.008-.137.033-.263.033-.403V6.162Z" fill="#fff"/><path d="M6.739 9.067c1.27 0 2.329-1.055 2.329-2.32a2.31 2.31 0 0 0-.69-1.636A2.31 2.31 0 0 0 4.4 6.704c0 .168.02.331.055.49A2.351 2.351 0 0 0 6.74 9.067Z" fill="#fff" fill-opacity=".4"/></symbol><symbol viewBox="0 0 11 10" fill="none" id="icon-left" xmlns="http://www.w3.org/2000/svg"><g clip-path="url(#beclip0_14_2854)"><path d="M2.221 5c0 .178.069.357.205.494l4.3 4.3a.7.7 0 1 0 .99-.99L3.913 4.999l3.804-3.804a.7.7 0 0 0-.99-.99l-4.3 4.299a.698.698 0 0 0-.205.495Z" fill="#fff"/></g><defs><clipPath id="beclip0_14_2854"><path fill="#fff" transform="translate(.072)" d="M0 0h10v10H0z"/></clipPath></defs></symbol><symbol viewBox="0 0 20 20" fill="none" id="icon-like" xmlns="http://www.w3.org/2000/svg"><g clip-path="url(#bfclip0_9_311)"><path d="M17.808 8.801c-.796 4.08-4.979 6.946-6.74 7.99a2.098 2.098 0 0 1-2.137 0c-1.76-1.044-5.943-3.909-6.739-7.99-.332-1.705.12-3.514 1.21-4.839 1-1.212 2.387-1.879 3.908-1.879a5.42 5.42 0 0 1 2.69.703 5.419 5.419 0 0 1 2.69-.703c1.522 0 2.91.667 3.908 1.88 1.09 1.324 1.542 3.133 1.21 4.838Z" fill="#fff"/></g><defs><clipPath id="bfclip0_9_311"><path fill="#fff" d="M0 0h20v20H0z"/></clipPath></defs></symbol><symbol viewBox="0 0 20 20" fill="none" id="icon-listing" xmlns="http://www.w3.org/2000/svg"><g clip-path="url(#bgclip0_9_329)"><path d="M10 2.083c-4.367 0-7.917 3.55-7.917 7.917 0 4.366 3.55 7.916 7.917 7.916s7.917-3.55 7.917-7.916c0-4.367-3.55-7.917-7.917-7.917Zm.833 12.083H9.167a.836.836 0 0 1-.834-.833c0-.458.375-.833.834-.833h1.666c.459 0 .834.375.834.833a.836.836 0 0 1-.834.833Zm1.25-3.333H7.917A.836.836 0 0 1 7.083 10c0-.459.375-.834.834-.834h4.166c.459 0 .834.375.834.834a.836.836 0 0 1-.834.833Zm1.25-3.333H6.667a.836.836 0 0 1-.834-.834c0-.458.375-.833.834-.833h6.666c.459 0 .834.375.834.833a.836.836 0 0 1-.834.834Z" fill="#fff"/></g><defs><clipPath id="bgclip0_9_329"><path fill="#fff" d="M0 0h20v20H0z"/></clipPath></defs></symbol><symbol viewBox="0 0 201 46" fill="none" id="icon-logo" xmlns="http://www.w3.org/2000/svg"><path d="M15 43.745C15 33.04 30 30.15 30 17.63c0-8.492-6.716-15.375-15-15.375-8.284 0-15 6.883-15 15.375 0 12.492 15 15.4 15 26.115ZM13.682 7.552c3.142 0 6.068 1.11 6.82 4.2.75 3.09-.663 6.031-3.678 6.802-4.797 1.226-4.47 5.76-1.824 7.465C.836 24.902 3.67 7.552 13.682 7.552Z" fill="url(#bhpaint0_linear_1_1155)"/><path fill-rule="evenodd" clip-rule="evenodd" d="M85.227 10v27h4.392V10h-4.392Zm69.609 27V10h4.392v27h-4.392Zm26.401-18h-4.392l.198 2.304a8.195 8.195 0 0 0-2.412-2.016c-.936-.528-1.998-.792-3.186-.792-1.284 0-2.484.24-3.6.72a9.373 9.373 0 0 0-4.95 4.968 9.346 9.346 0 0 0-.702 3.618c0 1.332.246 2.58.738 3.744a9.998 9.998 0 0 0 2.07 3.078 9.843 9.843 0 0 0 3.078 2.088 9.32 9.32 0 0 0 3.744.756c1.104 0 2.058-.246 2.862-.738a5.899 5.899 0 0 0 1.962-1.962l.198 2.232h4.392V19Zm-7.038 13.536c-.72.468-1.548.702-2.484.702a4.752 4.752 0 0 1-2.52-.702 5.283 5.283 0 0 1-1.818-1.89c-.456-.792-.684-1.674-.684-2.646s.222-1.854.666-2.646a5.283 5.283 0 0 1 1.818-1.89 4.694 4.694 0 0 1 2.538-.72c.924 0 1.746.234 2.466.702a4.787 4.787 0 0 1 1.71 1.908c.408.792.612 1.674.612 2.646 0 .96-.204 1.842-.612 2.646a4.866 4.866 0 0 1-1.692 1.89ZM200.85 19h-4.662l-4.392 11.988L187.926 19h-4.806l6.48 18-3.258 9h4.662l9.846-27Zm-59.373 0 .018 18h4.392V26.776c0-.708.168-1.35.504-1.926.348-.588.81-1.05 1.386-1.386a3.746 3.746 0 0 1 1.944-.522c.456 0 .912.09 1.368.27l1.728-4.428a7.058 7.058 0 0 0-1.98-.288c-.984 0-1.902.192-2.754.576a6.633 6.633 0 0 0-2.196 1.53L145.869 19h-4.392Zm-11.803 18.468c-1.656 0-3.168-.426-4.536-1.278-1.356-.852-2.442-1.998-3.258-3.438-.804-1.44-1.206-3.03-1.206-4.77 0-1.308.234-2.532.702-3.672a9.642 9.642 0 0 1 1.926-3.024 9.034 9.034 0 0 1 2.88-2.052 8.403 8.403 0 0 1 3.492-.738c1.404 0 2.688.3 3.852.9a8.757 8.757 0 0 1 2.988 2.43 9.995 9.995 0 0 1 1.782 3.528c.372 1.32.456 2.7.252 4.14H125.39a5.34 5.34 0 0 0 .828 1.818c.384.528.87.954 1.458 1.278.588.312 1.254.474 1.998.486a3.877 3.877 0 0 0 2.088-.54 4.876 4.876 0 0 0 1.584-1.548l4.482 1.044a9.621 9.621 0 0 1-3.276 3.924c-1.452 1.008-3.078 1.512-4.878 1.512ZM125.246 26.2h8.856a4.568 4.568 0 0 0-.846-1.944 4.742 4.742 0 0 0-1.566-1.404 4.073 4.073 0 0 0-2.016-.522c-.72 0-1.386.174-1.998.522a4.79 4.79 0 0 0-1.566 1.386 5.088 5.088 0 0 0-.864 1.962ZM107.574 37h5.67l6.552-18.018h-4.68l-4.698 12.96-4.716-12.96h-4.68L107.574 37ZM93.945 19h4.392v18h-4.392V19Zm2.232-2.322c-.648 0-1.194-.21-1.638-.63-.444-.432-.666-.972-.666-1.62 0-.636.222-1.17.666-1.602a2.237 2.237 0 0 1 1.62-.648c.636 0 1.17.216 1.602.648.444.432.666.966.666 1.602 0 .648-.216 1.188-.648 1.62-.432.42-.966.63-1.602.63Zm-22.472 20.79c-1.656 0-3.168-.426-4.536-1.278-1.356-.852-2.442-1.998-3.258-3.438-.804-1.44-1.206-3.03-1.206-4.77 0-1.308.234-2.532.702-3.672a9.642 9.642 0 0 1 1.926-3.024 9.034 9.034 0 0 1 2.88-2.052 8.403 8.403 0 0 1 3.492-.738c1.404 0 2.688.3 3.852.9a8.757 8.757 0 0 1 2.988 2.43 9.995 9.995 0 0 1 1.782 3.528c.372 1.32.456 2.7.252 4.14H69.421a5.34 5.34 0 0 0 .828 1.818c.384.528.87.954 1.458 1.278.588.312 1.254.474 1.998.486a3.877 3.877 0 0 0 2.088-.54 4.876 4.876 0 0 0 1.584-1.548l4.482 1.044a9.621 9.621 0 0 1-3.276 3.924c-1.452 1.008-3.078 1.512-4.878 1.512ZM69.277 26.2h8.856a4.568 4.568 0 0 0-.846-1.944 4.742 4.742 0 0 0-1.566-1.404 4.073 4.073 0 0 0-2.016-.522c-.72 0-1.386.174-1.998.522a4.79 4.79 0 0 0-1.566 1.386 5.088 5.088 0 0 0-.864 1.962ZM42.16 11.8V37h8.352c1.74 0 3.366-.324 4.878-.972a12.832 12.832 0 0 0 6.732-6.732c.66-1.524.99-3.156.99-4.896 0-1.74-.33-3.366-.99-4.878a12.439 12.439 0 0 0-2.718-4.014 12.439 12.439 0 0 0-4.014-2.718c-1.512-.66-3.138-.99-4.878-.99H42.16Zm8.352 20.808h-3.96V16.192h3.96c1.128 0 2.184.216 3.168.648a8.223 8.223 0 0 1 2.61 1.764 8.478 8.478 0 0 1 1.782 2.61c.432.984.648 2.046.648 3.186 0 1.14-.216 2.208-.648 3.204a8.478 8.478 0 0 1-1.782 2.61 8.575 8.575 0 0 1-2.628 1.764 7.94 7.94 0 0 1-3.15.63Z" fill="#fff"/><defs><linearGradient id="bhpaint0_linear_1_1155" x1="3.75" y1="43.255" x2="35.523" y2="11.908" gradientUnits="userSpaceOnUse"><stop stop-color="#F94800"/><stop offset="1" stop-color="#4B50E6"/></linearGradient></defs></symbol><symbol viewBox="0 0 20 20" fill="none" id="icon-mark" xmlns="http://www.w3.org/2000/svg"><path d="M10.748 18.307a1.655 1.655 0 0 1-1.179-.489L3.04 11.29a1.662 1.662 0 0 1-.484-1.306l.417-5.471a1.658 1.658 0 0 1 1.54-1.534l5.471-.417c.044-.01.086-.01.13-.01.441 0 .864.176 1.175.49l6.531 6.527a1.667 1.667 0 0 1 0 2.358l-5.893 5.892a1.655 1.655 0 0 1-1.178.489ZM7.212 5.545A1.667 1.667 0 1 0 8.39 8.39l.006-.005.006-.006-.007.006a1.667 1.667 0 0 0-1.184-2.84Z" fill="#fff"/></symbol><symbol viewBox="0 0 20 20" fill="none" id="icon-more" xmlns="http://www.w3.org/2000/svg"><path fill-rule="evenodd" clip-rule="evenodd" d="M5 10a2.5 2.5 0 1 1-5 0 2.5 2.5 0 0 1 5 0Zm7.5 0a2.5 2.5 0 1 1-5 0 2.5 2.5 0 0 1 5 0Zm5 2.5a2.5 2.5 0 1 0 0-5 2.5 2.5 0 0 0 0 5Z" fill="#fff"/></symbol><symbol viewBox="0 0 20 20" fill="none" id="icon-note" xmlns="http://www.w3.org/2000/svg"><g clip-path="url(#bkclip0_9_315)" fill="#fff"><path d="M.009 14.334a.586.586 0 0 0 .475.678l2.6.459L1.448 6.18.009 14.334ZM3.132.01a.587.587 0 0 0-.681.474l-.622 3.524 11.823-2.084L3.132.009ZM19.991 16.87 17.55 3.021a.586.586 0 0 0-.678-.475L3.02 4.988a.586.586 0 0 0-.475.679l2.442 13.849a.586.586 0 0 0 .679.475l13.849-2.442a.586.586 0 0 0 .475-.679ZM5.668 9.876a.586.586 0 0 1 .476-.679l9.232-1.628a.586.586 0 1 1 .204 1.154l-9.233 1.628a.586.586 0 0 1-.679-.475Zm7.648 4.006-6.155 1.086a.586.586 0 0 1-.203-1.154l6.155-1.086a.586.586 0 1 1 .203 1.154Zm2.67-2.85-9.232 1.627a.587.587 0 1 1-.203-1.154l9.232-1.628a.586.586 0 1 1 .204 1.154Z"/></g><defs><clipPath id="bkclip0_9_315"><path fill="#fff" d="M0 0h20v20H0z"/></clipPath></defs></symbol><symbol viewBox="0 0 20 20" fill="none" id="icon-paper" xmlns="http://www.w3.org/2000/svg"><path d="M3.262 2.344H2.09V20h13.476v-1.172H3.262V2.344ZM15.709 4.395l-2.193-2.193v2.193h2.193Z" fill="#fff"/><path d="M16.152 5.566h-3.808V1.758A1.76 1.76 0 0 0 10.586 0H4.434v17.656H17.91V7.324a1.76 1.76 0 0 0-1.758-1.758Z" fill="#fff"/></symbol><symbol viewBox="0 0 20 20" fill="none" id="icon-people" xmlns="http://www.w3.org/2000/svg"><path d="M13 6a3 3 0 1 1-6 0 3 3 0 0 1 6 0ZM18 8a2 2 0 1 1-4 0 2 2 0 0 1 4 0ZM14 15a4 4 0 1 0-8 0v3h8v-3ZM6 8a2 2 0 1 1-4 0 2 2 0 0 1 4 0ZM16 18v-3a5.972 5.972 0 0 0-.75-2.906A3.007 3.007 0 0 1 19 15v3h-3ZM4.75 12.094A5.973 5.973 0 0 0 4 15v3H1v-3a3 3 0 0 1 3.75-2.906Z" fill="#fff"/></symbol><symbol viewBox="0 0 20 20" fill="none" id="icon-purchase" xmlns="http://www.w3.org/2000/svg"><g clip-path="url(#bnclip0_9_313)"><path fill-rule="evenodd" clip-rule="evenodd" d="M11.768 9.361h2.306a.63.63 0 0 0 .625-.638.625.625 0 0 0-.625-.637h-2.306c-.35 0-.625.28-.625.637a.63.63 0 0 0 .625.638Zm5.046-4.421c.508 0 .84.178 1.174.57.333.39.391.952.316 1.462l-.79 5.578c-.15 1.073-1.05 1.863-2.107 1.863H6.322c-1.107 0-2.023-.867-2.115-1.99l-.766-9.27-1.257-.221A.64.64 0 0 1 2.4 1.674l1.986.306c.283.051.491.289.516.578l.159 1.905a.513.513 0 0 0 .507.477h11.246ZM6.189 15.757c-.7 0-1.266.578-1.266 1.292 0 .706.566 1.285 1.266 1.285.69 0 1.257-.579 1.257-1.285 0-.714-.566-1.292-1.257-1.292Zm9.367 0c-.7 0-1.265.578-1.265 1.292 0 .706.566 1.285 1.265 1.285.691 0 1.258-.579 1.258-1.285 0-.714-.567-1.292-1.258-1.292Z" fill="#fff"/></g><defs><clipPath id="bnclip0_9_313"><path fill="#fff" d="M0 0h20v20H0z"/></clipPath></defs></symbol><symbol viewBox="0 0 20 20" fill="none" id="icon-reload" xmlns="http://www.w3.org/2000/svg"><path d="M16.78 11.993a.955.955 0 0 0-1.261.48 6.048 6.048 0 0 1-10.925.235l.54.241a.955.955 0 1 0 .777-1.744L3.4 10.086a.955.955 0 0 0-1.26.484L1.02 13.082a.955.955 0 0 0 1.744.777l.128-.287a7.957 7.957 0 0 0 14.368-.317.955.955 0 0 0-.48-1.262ZM18.496 5.657a.955.955 0 0 0-1.26.484l-.128.287a7.957 7.957 0 0 0-14.34.253.954.954 0 1 0 1.735.798 6.048 6.048 0 0 1 10.903-.187l-.541-.241a.955.955 0 0 0-.777 1.744l2.505 1.115.005.002a.954.954 0 0 0 1.263-.482l1.118-2.512a.955.955 0 0 0-.483-1.26Z" fill="#fff"/></symbol><symbol viewBox="0 0 11 10" fill="none" id="icon-right" xmlns="http://www.w3.org/2000/svg"><g clip-path="url(#bpclip0_14_2856)"><path d="M7.922 4.999a.698.698 0 0 0-.205-.495l-4.3-4.3a.7.7 0 1 0-.99.99L6.23 5 2.427 8.804a.7.7 0 0 0 .99.99l4.3-4.3a.698.698 0 0 0 .205-.495Z" fill="#fff"/></g><defs><clipPath id="bpclip0_14_2856"><path fill="#fff" transform="translate(.072)" d="M0 0h10v10H0z"/></clipPath></defs></symbol><symbol viewBox="0 0 20 20" fill="none" id="icon-rocket" xmlns="http://www.w3.org/2000/svg"><path d="m13.89 13.16 1.355-2.149c3.026-4.792 2.826-8.967 2.61-10.503A.572.572 0 0 0 17.12.04C15.627.494 11.73 2.085 8.703 6.88L7.347 9.03l-.565.017a3.284 3.284 0 0 0-2.677 1.529L2.487 13.14a.486.486 0 0 0 .424.748l1.83-.045a2.609 2.609 0 0 1 1.455.402l.948.598-.784 1.242a.489.489 0 0 0 .151.674l.76.48c.227.143.529.075.673-.154l.785-1.242.947.598c.434.274.779.67.988 1.142l.747 1.67a.486.486 0 0 0 .857.061l1.619-2.564a3.289 3.289 0 0 0 .23-3.073l-.227-.518Zm-1.147-5.431a1.687 1.687 0 1 1 1.801-2.852 1.687 1.687 0 0 1-1.8 2.852Z" fill="#fff"/></symbol><symbol viewBox="0 0 20 20" fill="none" id="icon-sales" xmlns="http://www.w3.org/2000/svg"><g clip-path="url(#brclip0_9_307)"><path d="M17.183 8.224 16.7 7.74a1.249 1.249 0 0 1-.367-.883v-.683a2.51 2.51 0 0 0-2.508-2.509h-.683c-.334 0-.65-.125-.884-.366l-.483-.484a2.52 2.52 0 0 0-3.55 0l-.483.484c-.234.241-.55.366-.884.366h-.683a2.51 2.51 0 0 0-2.508 2.509v.683c0 .333-.125.65-.367.883l-.483.484a2.496 2.496 0 0 0-.734 1.775c0 .666.259 1.3.734 1.775l.483.483c.242.233.367.55.367.883v.684a2.51 2.51 0 0 0 2.508 2.508h.683c.334 0 .65.125.884.367l.483.483a2.498 2.498 0 0 0 1.775.733c.642 0 1.283-.241 1.775-.733l.483-.483c.234-.242.55-.367.884-.367h.683a2.51 2.51 0 0 0 2.508-2.508v-.684c0-.333.134-.65.367-.883l.483-.483a2.496 2.496 0 0 0 .734-1.775c0-.667-.259-1.3-.734-1.775Zm-9.266-1.35a1.042 1.042 0 1 1-.001 2.084 1.042 1.042 0 0 1 0-2.084Zm4.166 6.25a1.042 1.042 0 1 1 .001-2.085 1.042 1.042 0 0 1 0 2.085Zm1.009-5.034-5 5a.854.854 0 0 1-.592.242.869.869 0 0 1-.592-.242.84.84 0 0 1 0-1.183l5-5a.84.84 0 0 1 1.184 0 .84.84 0 0 1 0 1.183Z" fill="#fff"/></g><defs><clipPath id="brclip0_9_307"><path fill="#fff" d="M0 0h20v20H0z"/></clipPath></defs></symbol><symbol viewBox="0 0 42 37" fill="none" id="icon-salvador-dali" xmlns="http://www.w3.org/2000/svg"><path fill-rule="evenodd" clip-rule="evenodd" d="m12.219 34 5.335 1.416v-1.851l.435-.436h3.049v3.702H17.77l-4.028-1.742L12.219 34Z" fill="#CDBDB2"/><path fill-rule="evenodd" clip-rule="evenodd" d="m29.642 34-5.226 1.416v-1.851l-.435-.436h-3.049v3.702H24.2l4.028-1.742L29.642 34Z" fill="#CDBDB2"/><path fill-rule="evenodd" clip-rule="evenodd" d="m17.997 29.97-.435 3.593.544-.435h5.662l.653.435-.435-3.592-.872-.545-4.355.11-.762.435Z" fill="#393939"/><path fill-rule="evenodd" clip-rule="evenodd" d="m15.053 5.69 2.613 6.097 1.198 17.747h4.246l1.306-17.747 2.395-6.097H15.053Z" fill="#F89C35"/><path fill-rule="evenodd" clip-rule="evenodd" d="m3.624 19.084-3.049 8.82 7.621-.436h4.9v-3.81l-.218-7.84-1.089.871-8.165 2.395Z" fill="#F89D35"/><path fill-rule="evenodd" clip-rule="evenodd" d="m9.394 20.063 8.928.218-.98 4.573-4.246-1.089-3.702-3.702Z" fill="#D87C30"/><path fill-rule="evenodd" clip-rule="evenodd" d="m9.394 20.171 3.702 3.484v3.484l-3.702-6.968Z" fill="#EA8D3A"/><path fill-rule="evenodd" clip-rule="evenodd" d="m13.092 23.764 4.356 1.088 1.415 4.682-.98.544-4.79-2.83v-3.485Z" fill="#F89D35"/><path fill-rule="evenodd" clip-rule="evenodd" d="m13.09 27.248-.871 6.75 5.77-4.028-4.9-2.722Z" fill="#EB8F35"/><path fill-rule="evenodd" clip-rule="evenodd" d="m18.316 20.278.545 9.255-1.633-4.737 1.088-4.518Z" fill="#EA8E3A"/><path fill-rule="evenodd" clip-rule="evenodd" d="m8.084 27.357 5.008-.11-.87 6.75-4.138-6.64Z" fill="#D87C30"/><path fill-rule="evenodd" clip-rule="evenodd" d="M2.97 36.94 12.225 34l-4.137-6.642-7.513.545L2.97 36.94Z" fill="#EB8F35"/><path fill-rule="evenodd" clip-rule="evenodd" d="m17.669 11.788-4.682 3.92-3.593 4.355 8.928.326-.653-8.601Z" fill="#E8821E"/><path fill-rule="evenodd" clip-rule="evenodd" d="m12.219 33.998 5.77-4.028-.435 3.483v1.96l-3.92-.762-1.415-.653ZM29.642 33.998l-5.661-4.028.435 3.483v1.96l3.92-.762 1.306-.653Z" fill="#DFCEC3"/><path fill-rule="evenodd" clip-rule="evenodd" d="m15.928 22.238 1.197 2.504-4.246-1.089 3.049-1.415Z" fill="#393939"/><path fill-rule="evenodd" clip-rule="evenodd" d="m2.862.573 14.807 11.215-2.504-6.097L2.862.573Z" fill="#E88F35"/><path fill-rule="evenodd" clip-rule="evenodd" d="M2.86.573.9 6.562l1.09 6.532-.763.436 1.089.98-.871.762 1.197 1.088-.762.654 1.742 2.177 8.166-2.504c3.992-3.194 5.952-4.827 5.88-4.9-.073-.072-5.009-3.81-14.808-11.214Z" fill="#8E5A30"/><path fill-rule="evenodd" clip-rule="evenodd" d="m38.246 19.084 3.048 8.82-7.62-.436h-4.9v-3.81l.218-7.84 1.088.871 8.166 2.395Z" fill="#F89D35"/><path fill-rule="evenodd" clip-rule="evenodd" d="m32.476 20.063-8.928.218.98 4.573 4.246-1.089 3.702-3.702Z" fill="#D87C30"/><path fill-rule="evenodd" clip-rule="evenodd" d="m32.476 20.171-3.702 3.484v3.484l3.702-6.968Z" fill="#EA8D3A"/><path fill-rule="evenodd" clip-rule="evenodd" d="m28.778 23.762-4.355 1.089-1.415 4.682.98.544 4.79-2.83v-3.485Z" fill="#F89D35"/><path fill-rule="evenodd" clip-rule="evenodd" d="m28.77 27.248.871 6.75-5.661-3.92 4.79-2.83Z" fill="#EB8F35"/><path fill-rule="evenodd" clip-rule="evenodd" d="M23.544 20.28 23 29.533l1.633-4.736-1.089-4.519Z" fill="#EA8E3A"/><path fill-rule="evenodd" clip-rule="evenodd" d="m33.782 27.357-5.008-.11.87 6.751 4.138-6.641Z" fill="#D87C30"/><path fill-rule="evenodd" clip-rule="evenodd" d="M38.9 36.94 29.644 34l4.137-6.642 7.513.545-2.396 9.037Z" fill="#EB8F35"/><path fill-rule="evenodd" clip-rule="evenodd" d="m24.201 11.788 4.682 3.92 3.593 4.355-8.928.326.653-8.601Z" fill="#E8821E"/><path fill-rule="evenodd" clip-rule="evenodd" d="m25.943 22.238-1.198 2.504 4.246-1.089-3.048-1.415Z" fill="#393939"/><path fill-rule="evenodd" clip-rule="evenodd" d="M39.008.573 24.201 11.788l2.504-6.097L39.008.573Z" fill="#E88F35"/><path fill-rule="evenodd" clip-rule="evenodd" d="m39.009.573 1.96 5.989-1.09 6.532.763.436-1.089.98.871.762-1.197 1.088.762.654-1.742 2.177-8.166-2.504c-3.992-3.194-5.952-4.827-5.88-4.9.073-.072 5.009-3.81 14.808-11.214Z" fill="#8E5A30"/></symbol><symbol viewBox="0 0 20 20" fill="none" id="icon-search" xmlns="http://www.w3.org/2000/svg"><mask id="bumask0_9_324" style="mask-type:luminance" maskUnits="userSpaceOnUse" x="1" y="1" width="18" height="17"><path fill-rule="evenodd" clip-rule="evenodd" d="M1.667 1.667h16.019v15.665H1.666V1.668Z" fill="#fff" stroke="#fff"/></mask><g mask="url(#bumask0_9_324)" fill="#fff"><path fill-rule="evenodd" clip-rule="evenodd" d="M9.677 2.873C5.94 2.873 2.9 5.845 2.9 9.5c0 3.654 3.04 6.627 6.777 6.627 3.735 0 6.775-2.973 6.775-6.627s-3.04-6.626-6.775-6.626Zm0 14.46c-4.417 0-8.01-3.514-8.01-7.834 0-4.319 3.593-7.832 8.01-7.832 4.416 0 8.009 3.513 8.009 7.832 0 4.32-3.593 7.833-8.01 7.833Z"/><path d="M9.677 2.373C5.675 2.373 2.4 5.558 2.4 9.5h1c0-3.367 2.805-6.126 6.277-6.126v-1ZM2.4 9.5c0 3.94 3.274 7.127 7.277 7.127v-1c-3.471 0-6.277-2.76-6.277-6.127h-1Zm7.277 7.127c4 0 7.275-3.187 7.275-7.127h-1c0 3.367-2.805 6.127-6.275 6.127v1Zm7.275-7.127c0-3.94-3.274-7.126-7.275-7.126v1c3.47 0 6.275 2.759 6.275 6.126h1Zm-7.275 7.333c-4.152 0-7.51-3.3-7.51-7.333h-1c0 4.606 3.827 8.333 8.51 8.333v-1ZM2.167 9.5c0-4.032 3.358-7.332 7.51-7.332v-1c-4.683 0-8.51 3.727-8.51 8.332h1Zm7.51-7.332c4.15 0 7.509 3.3 7.509 7.332h1c0-4.605-3.827-8.332-8.51-8.332v1Zm7.509 7.332c0 4.033-3.358 7.333-7.51 7.333v1c4.683 0 8.51-3.727 8.51-8.333h-1Z"/></g><mask id="bumask1_9_324" style="mask-type:luminance" maskUnits="userSpaceOnUse" x="13" y="13" width="6" height="6"><path fill-rule="evenodd" clip-rule="evenodd" d="M14.201 14.3h4.132v4.033h-4.132V14.3Z" fill="#fff" stroke="#fff"/></mask><g mask="url(#bumask1_9_324)"><path fill-rule="evenodd" clip-rule="evenodd" d="M17.717 18.333a.625.625 0 0 1-.436-.176l-2.899-2.826a.594.594 0 0 1 0-.854.627.627 0 0 1 .872-.001l2.899 2.827a.593.593 0 0 1 0 .852.619.619 0 0 1-.436.178Z" fill="#fff"/><path d="M17.717 18.333a.625.625 0 0 1-.436-.176l-2.899-2.826a.594.594 0 0 1 0-.854.627.627 0 0 1 .872-.001l2.899 2.827a.593.593 0 0 1 0 .852.619.619 0 0 1-.436.178" stroke="#fff"/></g></symbol><symbol viewBox="0 0 12 12" fill="none" id="icon-search-close" xmlns="http://www.w3.org/2000/svg"><path fill-rule="evenodd" clip-rule="evenodd" d="M1.583 10.914a.375.375 0 0 1-.524-.001.356.356 0 0 1 0-.512l4.422-4.4L1.06 1.6a.356.356 0 0 1 0-.513.376.376 0 0 1 .523 0L6 5.483l4.417-4.396a.376.376 0 0 1 .524 0 .356.356 0 0 1 0 .513L6.518 6l4.421 4.401a.356.356 0 0 1 0 .512.375.375 0 0 1-.524.001L6.001 6.517l-4.417 4.397Z" fill="#8A8AA0"/><path d="m1.583 10.914.348.358.005-.004-.353-.354Zm-.524-.001.352-.356-.002-.002-.35.358Zm0-.512.35.358.003-.004-.352-.354Zm4.422-4.4.353.354L6.19 6l-.356-.354L5.48 6ZM1.06 1.6l.353-.355-.004-.003-.35.358Zm0-.513.349.358.002-.002-.352-.356Zm.523 0 .353-.355L1.93.727l-.348.36ZM6 5.483l-.353.355.353.35.353-.35L6 5.483Zm4.417-4.396-.348-.36-.005.005.353.355Zm.524 0-.352.356.002.002.35-.358Zm0 .513-.35-.358-.004.003.353.355ZM6.518 6l-.353-.354L5.81 6l.356.355L6.52 6Zm4.421 4.401-.353.354.004.004.35-.358Zm0 .512-.349-.358-.002.002.352.356Zm-.523 0-.353.355.005.004.348-.358ZM6 6.518l.353-.355L6 5.813l-.353.35.353.355Zm-4.679 5.002c.218 0 .44-.081.61-.247l-.697-.717a.125.125 0 0 1 .087-.036v1Zm-.614-.251c.172.17.397.251.614.251v-1a.13.13 0 0 1 .09.038l-.704.71Zm.003-1.224a.856.856 0 0 0 0 1.226l.699-.715a.144.144 0 0 1 0 .204l-.699-.715Zm4.418-4.398-4.421 4.4.705.71 4.422-4.401-.706-.71Zm.706 0-4.421-4.4-.706.708 4.421 4.4.706-.708ZM1.409 1.242a.144.144 0 0 1 0 .203L.709.73A.856.856 0 0 0 .71 1.957l.7-.715Zm.002.201a.124.124 0 0 1-.176.003l.696-.719A.876.876 0 0 0 .708.732l.703.711Zm-.18-.002 4.416 4.397.706-.709L1.936.732l-.706.709Zm8.833-.709L5.647 5.13l.706.709L10.77 1.44l-.706-.709Zm1.228 0a.876.876 0 0 0-1.223-.005l.696.719a.124.124 0 0 1-.176-.003l.703-.711Zm-.002 1.225a.856.856 0 0 0 0-1.227l-.699.715a.144.144 0 0 1 0-.203l.699.715ZM6.872 6.355l4.42-4.401-.705-.709-4.42 4.4.705.71Zm-.706 0 4.421 4.4.706-.708-4.421-4.401-.706.709Zm4.425 4.404a.144.144 0 0 1 0-.204l.7.715a.856.856 0 0 0-.001-1.226l-.7.715Zm-.002-.202a.13.13 0 0 1 .09-.038v1a.871.871 0 0 0 .614-.251l-.704-.71Zm.09-.038c.03 0 .061.011.086.036l-.696.717c.17.166.392.247.61.247v-1Zm.09.04L6.354 6.163l-.706.708 4.417 4.397.706-.709Zm-8.833.709 4.417-4.397-.706-.709L1.23 10.56l.706.709Z" fill="#8A8AA0"/></symbol><symbol viewBox="0 0 20 20" fill="none" id="icon-send" xmlns="http://www.w3.org/2000/svg"><path d="M3.263 1.824c.27-.194.63-.21.916-.038l12.5 7.5a.833.833 0 0 1 0 1.429l-12.5 7.5a.833.833 0 0 1-1.242-.895l1.44-6.486H8.75a.833.833 0 0 0 0-1.667H4.378L2.937 2.681a.833.833 0 0 1 .326-.857Z" fill="#fff"/></symbol><symbol viewBox="0 0 20 20" fill="none" id="icon-send-2" xmlns="http://www.w3.org/2000/svg"><path d="M19.155.844a2.85 2.85 0 0 0-2.731-.756L2.975 3.45C1.183 3.898-.013 5.44 0 7.289c.013 1.848 1.23 3.373 3.029 3.796l4.765 1.121 1.12 4.765c.424 1.8 1.95 3.016 3.797 3.029h.03c1.835 0 3.363-1.193 3.81-2.975l3.361-13.449a2.855 2.855 0 0 0-.757-2.732Zm-.736 2.357-3.362 13.448c-.338 1.346-1.473 1.796-2.335 1.812-.867-.006-1.992-.493-2.31-1.843l-1.132-4.81 4.34-4.34a.77.77 0 1 0-1.088-1.089l-4.34 4.34-4.81-1.132C2.03 9.27 1.544 8.144 1.537 7.277c-.006-.867.465-1.998 1.812-2.335L16.797 1.58a1.33 1.33 0 0 1 1.27.35c.335.337.467.811.352 1.27Z" fill="#fff"/></symbol><symbol viewBox="0 0 16 16" fill="none" id="icon-send-grey" xmlns="http://www.w3.org/2000/svg"><path d="M15.325.675A2.28 2.28 0 0 0 13.14.071L2.38 2.76A3.096 3.096 0 0 0 0 5.831a3.096 3.096 0 0 0 2.424 3.037l3.811.897.897 3.812A3.096 3.096 0 0 0 10.17 16h.023c1.468 0 2.69-.954 3.048-2.38L15.93 2.86a2.284 2.284 0 0 0-.606-2.186Zm-.59 1.886-2.689 10.758c-.27 1.077-1.178 1.437-1.868 1.45-.693-.005-1.594-.394-1.848-1.475l-.906-3.848 3.473-3.472a.616.616 0 0 0-.87-.87L6.553 8.575 2.706 7.67c-1.08-.255-1.47-1.155-1.475-1.848-.005-.694.372-1.6 1.45-1.868l10.757-2.69a1.063 1.063 0 0 1 1.016.28c.268.27.373.65.282 1.017Z" fill="#8A8AA0"/></symbol><symbol viewBox="0 0 20 20" fill="none" id="icon-star" xmlns="http://www.w3.org/2000/svg"><g clip-path="url(#byclip0_9_318)"><path d="M14.932 11.933a.917.917 0 0 0-.266.808l.741 4.1a.9.9 0 0 1-.375.9.917.917 0 0 1-.975.067l-3.69-1.925a.944.944 0 0 0-.418-.11h-.225a.678.678 0 0 0-.225.076l-3.692 1.934a.973.973 0 0 1-.592.092.926.926 0 0 1-.741-1.06l.741-4.1a.932.932 0 0 0-.266-.815L1.94 8.983a.9.9 0 0 1-.224-.942.936.936 0 0 1 .741-.625l4.142-.6a.927.927 0 0 0 .733-.508l1.825-3.742c.043-.083.1-.16.167-.225l.075-.058a.56.56 0 0 1 .134-.108l.09-.034.142-.058h.351c.314.033.59.22.734.5l1.849 3.725a.926.926 0 0 0 .691.508l4.142.6c.35.05.642.292.758.625.11.335.015.701-.241.942l-3.117 2.95Z" fill="#fff"/></g><defs><clipPath id="byclip0_9_318"><path fill="#fff" d="M0 0h20v20H0z"/></clipPath></defs></symbol><symbol viewBox="0 0 20 20" fill="none" id="icon-succes" xmlns="http://www.w3.org/2000/svg"><path fill-rule="evenodd" clip-rule="evenodd" d="M19.559 10A9.56 9.56 0 1 1 .44 10a9.56 9.56 0 0 1 19.119 0ZM15.904 7.48a1 1 0 1 0-1.566-1.245l-4.979 5.96-3.203-2.931a1 1 0 0 0-1.35 1.476L8.8 14.392a1 1 0 0 0 1.457-.115l5.647-6.798Z" fill="#fff"/></symbol><symbol viewBox="0 0 20 20" fill="none" id="icon-transfer" xmlns="http://www.w3.org/2000/svg"><g clip-path="url(#caclip0_9_321)"><path fill-rule="evenodd" clip-rule="evenodd" d="M8 9.39c-.352 0-.63.27-.63.61 0 .332.278.61.63.61h4.895v3.783c0 1.94-1.623 3.523-3.631 3.523H5.29c-2 0-3.623-1.575-3.623-3.515V5.606c0-1.948 1.632-3.523 3.631-3.523H9.28c1.992 0 3.615 1.575 3.615 3.515V9.39H8Zm7.807-2.13 2.342 2.304a.6.6 0 0 1 0 .863l-2.342 2.304a.626.626 0 0 1-.433.182.63.63 0 0 1-.441-.182.606.606 0 0 1 0-.863l1.283-1.259h-3.32V9.39h3.32l-1.283-1.258a.606.606 0 0 1 0-.863.618.618 0 0 1 .874-.008Z" fill="#fff"/></g><defs><clipPath id="caclip0_9_321"><path fill="#fff" d="M0 0h20v20H0z"/></clipPath></defs></symbol><symbol viewBox="0 0 20 20" fill="none" id="icon-twitch" xmlns="http://www.w3.org/2000/svg"><path d="M17.5 2.083v9.896l-3.913 3.958h-3.261l-2.031 1.98H5.761v-1.98H2.5V4.721l1.022-2.638H17.5Zm-1.304 1.32H5.108v9.896h2.609v1.978l1.957-1.98h3.913l2.608-2.638V3.402ZM13.587 6.04v3.958h-1.304V6.042h1.304V6.04Zm-3.261 0v3.958H9.022V6.042h1.304V6.04Z" fill="#fff"/></symbol><symbol viewBox="0 0 20 20" fill="none" id="icon-twitter" xmlns="http://www.w3.org/2000/svg"><path d="M16.37 5.15a3.562 3.562 0 0 0 1.504-1.979 6.664 6.664 0 0 1-2.171.868c-1.062-1.175-2.744-1.46-4.107-.698-1.362.763-2.068 2.386-1.723 3.963-2.749-.145-5.31-1.504-7.046-3.739C1.92 5.2 2.384 7.291 3.885 8.342a3.293 3.293 0 0 1-1.548-.448v.045c0 1.703 1.147 3.17 2.743 3.508a3.28 3.28 0 0 1-1.544.062c.449 1.457 1.732 2.455 3.194 2.484a6.668 6.668 0 0 1-5.063 1.483 9.368 9.368 0 0 0 5.242 1.607c2.585.019 5.07-1.048 6.899-2.961 1.828-1.913 2.847-4.514 2.83-7.22 0-.155-.004-.309-.011-.462a7.135 7.135 0 0 0 1.706-1.853 6.6 6.6 0 0 1-1.963.564Z" fill="#fff"/></symbol><symbol viewBox="0 0 11 10" fill="none" id="icon-up" xmlns="http://www.w3.org/2000/svg"><g clip-path="url(#cdclip0_12_603)"><path d="M5.072 2.15a.698.698 0 0 0-.496.204l-4.3 4.3a.7.7 0 1 0 .991.99L5.072 3.84l3.804 3.804a.7.7 0 0 0 .99-.99l-4.3-4.3a.698.698 0 0 0-.494-.205Z" fill="#fff"/></g><defs><clipPath id="cdclip0_12_603"><path fill="#fff" transform="translate(.072)" d="M0 0h10v10H0z"/></clipPath></defs></symbol><symbol viewBox="0 0 20 20" fill="none" id="icon-wallet" xmlns="http://www.w3.org/2000/svg"><path fill-rule="evenodd" clip-rule="evenodd" d="M14.807 6.985h3.526c0-2.831-1.696-4.485-4.57-4.485H6.237c-2.874 0-4.57 1.654-4.57 4.449v6.102c0 2.795 1.696 4.449 4.57 4.449h7.526c2.874 0 4.57-1.654 4.57-4.449v-.26h-3.525c-1.637 0-2.963-1.293-2.963-2.889 0-1.595 1.326-2.888 2.962-2.888v-.03Zm0 1.242h2.904c.344 0 .622.271.622.606v2.109a.622.622 0 0 1-.622.607h-2.837c-.828.01-1.553-.542-1.74-1.33a1.652 1.652 0 0 1 .36-1.376c.323-.384.804-.61 1.313-.616Zm.126 2.216h.274a.63.63 0 0 0 .637-.62.63.63 0 0 0-.636-.622h-.275a.638.638 0 0 0-.45.177.606.606 0 0 0-.187.437c0 .344.284.624.637.628ZM5.615 6.984h4.704a.63.63 0 0 0 .637-.62.63.63 0 0 0-.637-.622H5.615a.63.63 0 0 0-.637.614c0 .344.284.624.637.628Z" fill="#fff"/></symbol></svg>